<?xml version="1.0" encoding="UTF-8" standalone="no"?>
<svg
   xmlns:osb="http://www.openswatchbook.org/uri/2009/osb"
   xmlns:dc="http://purl.org/dc/elements/1.1/"
   xmlns:cc="http://creativecommons.org/ns#"
   xmlns:rdf="http://www.w3.org/1999/02/22-rdf-syntax-ns#"
   xmlns:svg="http://www.w3.org/2000/svg"
   xmlns="http://www.w3.org/2000/svg"
   xmlns:xlink="http://www.w3.org/1999/xlink"
   xmlns:sodipodi="http://sodipodi.sourceforge.net/DTD/sodipodi-0.dtd"
   xmlns:inkscape="http://www.inkscape.org/namespaces/inkscape"
   width="227.46931mm"
   height="200.30356mm"
   viewBox="0 0 227.46931 200.30356"
   version="1.1"
   id="svg8"
   inkscape:export-filename="/home/raluca/Desktop/felida mascot.png"
   inkscape:export-xdpi="55.650749"
   inkscape:export-ydpi="55.650749"
   inkscape:version="1.0.2 (e86c870879, 2021-01-15)"
   sodipodi:docname="drawingfelida.svg">
  <defs
     id="defs2">
    <linearGradient
       inkscape:collect="always"
       id="linearGradient920">
      <stop
         style="stop-color:#2673ff;stop-opacity:1"
         offset="0"
         id="stop916" />
      <stop
         style="stop-color:#0080e8;stop-opacity:1"
         offset="1"
         id="stop918" />
    </linearGradient>
    <linearGradient
       inkscape:collect="always"
       id="linearGradient900">
      <stop
         style="stop-color:#2673ff;stop-opacity:1"
         offset="0"
         id="stop895" />
      <stop
         style="stop-color:#0f0051;stop-opacity:0.99660665"
         offset="1"
         id="stop897" />
    </linearGradient>
    <linearGradient
       inkscape:collect="always"
       id="linearGradient892">
      <stop
         style="stop-color:#4e4e4e;stop-opacity:1"
         offset="0"
         id="stop888" />
      <stop
         style="stop-color:#242424;stop-opacity:0;"
         offset="1"
         id="stop890" />
    </linearGradient>
    <linearGradient
       inkscape:collect="always"
       id="linearGradient886">
      <stop
         style="stop-color:#101010;stop-opacity:1"
         offset="0"
         id="stop882" />
      <stop
         style="stop-color:#2b2b2b;stop-opacity:1"
         offset="1"
         id="stop884" />
    </linearGradient>
    <rect
       x="-69.248199"
       y="163.13643"
       width="197.85725"
       height="50.203903"
       id="rect2995" />
    <linearGradient
       id="linearGradient2970"
       osb:paint="solid">
      <stop
         style="stop-color:#4cd8fc;stop-opacity:1;"
         offset="0"
         id="stop2968" />
    </linearGradient>
    <linearGradient
       id="linearGradient2950"
       osb:paint="solid">
      <stop
         style="stop-color:#48ccf6;stop-opacity:1;"
         offset="0"
         id="stop2948" />
    </linearGradient>
    <linearGradient
       inkscape:collect="always"
       xlink:href="#linearGradient892"
       id="linearGradient887"
       x1="74.923279"
       y1="40.058029"
       x2="78.551628"
       y2="65.466835"
       gradientUnits="userSpaceOnUse"
       gradientTransform="matrix(0.83945135,0,0,0.83945135,-29.234725,73.341265)" />
    <linearGradient
       inkscape:collect="always"
       xlink:href="#linearGradient892"
       id="linearGradient891"
       gradientUnits="userSpaceOnUse"
       x1="74.923279"
       y1="40.058029"
       x2="78.551628"
       y2="65.466835"
       gradientTransform="matrix(-0.72676981,-0.42010024,-0.42010024,0.72676981,173.49612,118.12341)" />
    <linearGradient
       inkscape:collect="always"
       xlink:href="#linearGradient886"
       id="linearGradient899"
       x1="107.75246"
       y1="46.61375"
       x2="115.54077"
       y2="133.29085"
       gradientUnits="userSpaceOnUse"
       gradientTransform="matrix(0.83945135,0,0,0.83945135,-29.234725,73.341265)" />
    <linearGradient
       inkscape:collect="always"
       xlink:href="#linearGradient886"
       id="linearGradient911"
       x1="105.67798"
       y1="113.39787"
       x2="105.67798"
       y2="196.48911"
       gradientUnits="userSpaceOnUse"
       gradientTransform="matrix(0.83945135,0,0,0.83945135,-29.234725,73.341265)" />
    <linearGradient
       inkscape:collect="always"
       xlink:href="#linearGradient886"
       id="linearGradient921"
       x1="173.30775"
       y1="151.99516"
       x2="111.18285"
       y2="134.23206"
       gradientUnits="userSpaceOnUse"
       gradientTransform="matrix(0.83945135,0,0,0.83945135,-29.234725,73.341265)" />
    <linearGradient
       inkscape:collect="always"
       xlink:href="#linearGradient886"
       id="linearGradient947"
       x1="171.19112"
       y1="231.22377"
       x2="242.98843"
       y2="218.20847"
       gradientUnits="userSpaceOnUse"
       gradientTransform="matrix(0.83945135,0,0,0.83945135,-3.3301183,-4.4002503)" />
    <linearGradient
       inkscape:collect="always"
       xlink:href="#linearGradient900"
       id="linearGradient902"
       x1="31.691139"
       y1="-13.124374"
       x2="120.21284"
       y2="203.19211"
       gradientUnits="userSpaceOnUse"
       gradientTransform="translate(-0.97126008,-2.1997671)" />
    <linearGradient
       inkscape:collect="always"
       xlink:href="#linearGradient920"
       id="linearGradient914"
       x1="186.21495"
       y1="243.41258"
       x2="21.445154"
       y2="88.901611"
       gradientUnits="userSpaceOnUse"
       gradientTransform="matrix(3.7795276,0,0,3.7795276,-20.956054,-273.88335)" />
  </defs>
  <sodipodi:namedview
     id="base"
     pagecolor="#ffffff"
     bordercolor="#666666"
     borderopacity="1.0"
     inkscape:pageopacity="0.0"
     inkscape:pageshadow="2"
     inkscape:zoom="0.52636718"
     inkscape:cx="420.44179"
     inkscape:cy="488.58343"
     inkscape:document-units="mm"
     inkscape:current-layer="layer2"
     inkscape:document-rotation="0"
     showgrid="false"
     inkscape:snap-global="false"
     showguides="false"
     inkscape:window-width="1364"
     inkscape:window-height="711"
     inkscape:window-x="0"
     inkscape:window-y="32"
     inkscape:window-maximized="0"
     fit-margin-top="0"
     fit-margin-left="0"
     fit-margin-right="0"
     fit-margin-bottom="0" />
  <metadata
     id="metadata5">
    <rdf:RDF>
      <cc:Work
         rdf:about="">
        <dc:format>image/svg+xml</dc:format>
        <dc:type
           rdf:resource="http://purl.org/dc/dcmitype/StillImage" />
        <dc:title></dc:title>
      </cc:Work>
    </rdf:RDF>
  </metadata>
  <g
     inkscape:groupmode="layer"
     id="layer2"
     inkscape:label="Layer 2"
     transform="translate(25.687842,-45.624265)">
    <path
       id="path873"
       style="fill:url(#linearGradient902);fill-opacity:1;stroke:none;stroke-width:8.738;stroke-linecap:round"
       d="M 87.910389,45.624265 C 25.149941,45.699499 -25.687647,96.597907 -25.687842,159.3584 c -1.32e-4,26.64868 9.357248,52.45129 26.43921202,72.90511 20.95677798,-5.03858 44.03371698,-7.23811 67.28994898,-7.23826 36.513661,3e-5 71.309031,3.91736 100.220751,12.89857 21.45613,-21.34594 33.51938,-48.29968 33.5194,-78.56542 C 201.78123,96.544669 150.86055,45.624219 88.046816,45.624265 Z"
       sodipodi:nodetypes="ccccccsc" />
    <path
       id="path949"
       style="fill:url(#linearGradient914);fill-opacity:1;stroke:none;stroke-width:33.4526;stroke-linecap:round"
       d="M 305.75,-6.8964844 A 365.05755,365.05755 0 0 0 -59.306641,358.16211 a 365.05755,365.05755 0 0 0 86.589844,236.05664 430.30382,99.622971 0 0 1 0.777344,-0.10742 430.30382,99.622971 0 0 1 1.761719,-0.24219 430.30382,99.622971 0 0 1 1.763672,-0.24023 430.30382,99.622971 0 0 1 1.771484,-0.23829 430.30382,99.622971 0 0 1 1.77539,-0.23632 430.30382,99.622971 0 0 1 1.779297,-0.23438 430.30382,99.622971 0 0 1 1.785157,-0.23242 430.30382,99.622971 0 0 1 1.789062,-0.23047 430.30382,99.622971 0 0 1 1.794922,-0.22851 430.30382,99.622971 0 0 1 1.798828,-0.22657 430.30382,99.622971 0 0 1 1.802734,-0.22461 430.30382,99.622971 0 0 1 1.808594,-0.2207 430.30382,99.622971 0 0 1 1.8125,-0.2207 430.30382,99.622971 0 0 1 1.81836,-0.21875 430.30382,99.622971 0 0 1 1.820312,-0.2168 430.30382,99.622971 0 0 1 1.826172,-0.21484 430.30382,99.622971 0 0 1 1.832031,-0.21094 430.30382,99.622971 0 0 1 1.833985,-0.21094 430.30382,99.622971 0 0 1 1.839843,-0.20898 430.30382,99.622971 0 0 1 1.84375,-0.20508 430.30382,99.622971 0 0 1 1.847657,-0.20508 430.30382,99.622971 0 0 1 1.851562,-0.20117 430.30382,99.622971 0 0 1 1.855469,-0.20117 430.30382,99.622971 0 0 1 1.859375,-0.19727 430.30382,99.622971 0 0 1 1.865234,-0.19726 430.30382,99.622971 0 0 1 1.867188,-0.19336 430.30382,99.622971 0 0 1 1.873047,-0.19141 430.30382,99.622971 0 0 1 1.875,-0.19141 430.30382,99.622971 0 0 1 1.880859,-0.1875 430.30382,99.622971 0 0 1 1.882812,-0.18554 430.30382,99.622971 0 0 1 1.888672,-0.1836 430.30382,99.622971 0 0 1 1.890625,-0.18164 430.30382,99.622971 0 0 1 1.894532,-0.17968 430.30382,99.622971 0 0 1 1.898437,-0.17774 430.30382,99.622971 0 0 1 1.902344,-0.17383 430.30382,99.622971 0 0 1 1.90625,-0.17383 430.30382,99.622971 0 0 1 1.910156,-0.17187 430.30382,99.622971 0 0 1 1.91211,-0.16797 430.30382,99.622971 0 0 1 1.916015,-0.16797 430.30382,99.622971 0 0 1 1.919917,-0.16406 430.30382,99.622971 0 0 1 1.92383,-0.16211 430.30382,99.622971 0 0 1 1.92578,-0.16211 430.30382,99.622971 0 0 1 1.92969,-0.1582 430.30382,99.622971 0 0 1 1.9336,-0.15625 430.30382,99.622971 0 0 1 1.93554,-0.1543 430.30382,99.622971 0 0 1 1.93946,-0.15039 430.30382,99.622971 0 0 1 1.94336,-0.15039 430.30382,99.622971 0 0 1 1.94531,-0.14844 430.30382,99.622971 0 0 1 1.94726,-0.14453 430.30382,99.622971 0 0 1 1.95117,-0.14453 430.30382,99.622971 0 0 1 1.95508,-0.14062 430.30382,99.622971 0 0 1 1.95703,-0.14063 430.30382,99.622971 0 0 1 1.96094,-0.13672 430.30382,99.622971 0 0 1 1.96289,-0.13476 430.30382,99.622971 0 0 1 1.96485,-0.13282 430.30382,99.622971 0 0 1 1.96875,-0.1289 430.30382,99.622971 0 0 1 1.9707,-0.12891 430.30382,99.622971 0 0 1 1.97461,-0.12695 430.30382,99.622971 0 0 1 1.97461,-0.12305 430.30382,99.622971 0 0 1 1.97851,-0.12305 430.30382,99.622971 0 0 1 1.98243,-0.11914 430.30382,99.622971 0 0 1 1.98242,-0.11718 430.30382,99.622971 0 0 1 1.98633,-0.11524 430.30382,99.622971 0 0 1 1.98828,-0.11328 430.30382,99.622971 0 0 1 1.99023,-0.11133 430.30382,99.622971 0 0 1 1.99414,-0.10742 430.30382,99.622971 0 0 1 1.99414,-0.10742 430.30382,99.622971 0 0 1 1.99805,-0.10352 430.30382,99.622971 0 0 1 2,-0.10351 430.30382,99.622971 0 0 1 2,-0.0996 430.30382,99.622971 0 0 1 2.00391,-0.0977 430.30382,99.622971 0 0 1 2.00586,-0.0957 430.30382,99.622971 0 0 1 2.00781,-0.0918 430.30382,99.622971 0 0 1 2.00976,-0.0918 430.30382,99.622971 0 0 1 2.00977,-0.0879 430.30382,99.622971 0 0 1 2.01367,-0.0879 430.30382,99.622971 0 0 1 2.01563,-0.084 430.30382,99.622971 0 0 1 2.01562,-0.082 430.30382,99.622971 0 0 1 2.01758,-0.0801 430.30382,99.622971 0 0 1 2.01953,-0.0781 430.30382,99.622971 0 0 1 2.02148,-0.0762 430.30382,99.622971 0 0 1 2.02344,-0.0723 430.30382,99.622971 0 0 1 2.02539,-0.0703 430.30382,99.622971 0 0 1 2.02539,-0.0703 430.30382,99.622971 0 0 1 2.02735,-0.0664 430.30382,99.622971 0 0 1 2.02734,-0.0645 430.30382,99.622971 0 0 1 2.0293,-0.0625 430.30382,99.622971 0 0 1 2.03125,-0.0586 430.30382,99.622971 0 0 1 2.0332,-0.0586 430.30382,99.622971 0 0 1 2.0332,-0.0547 430.30382,99.622971 0 0 1 2.03516,-0.0527 430.30382,99.622971 0 0 1 2.03516,-0.0508 430.30382,99.622971 0 0 1 2.03711,-0.0488 430.30382,99.622971 0 0 1 2.0371,-0.0469 430.30382,99.622971 0 0 1 2.03907,-0.0449 430.30382,99.622971 0 0 1 2.03906,-0.041 430.30382,99.622971 0 0 1 2.04102,-0.041 430.30382,99.622971 0 0 1 2.04101,-0.0371 430.30382,99.622971 0 0 1 2.04102,-0.0352 430.30382,99.622971 0 0 1 2.04297,-0.0332 430.30382,99.622971 0 0 1 2.04296,-0.0293 430.30382,99.622971 0 0 1 2.04297,-0.0293 430.30382,99.622971 0 0 1 2.04492,-0.0254 430.30382,99.622971 0 0 1 2.04493,-0.0254 430.30382,99.622971 0 0 1 2.04492,-0.0215 430.30382,99.622971 0 0 1 2.04687,-0.0195 430.30382,99.622971 0 0 1 2.04493,-0.0156 430.30382,99.622971 0 0 1 2.04687,-0.0156 430.30382,99.622971 0 0 1 2.04688,-0.0137 430.30382,99.622971 0 0 1 2.04687,-0.01 430.30382,99.622971 0 0 1 2.04688,-0.008 430.30382,99.622971 0 0 1 2.04687,-0.006 430.30382,99.622971 0 0 1 2.04883,-0.004 430.30382,99.622971 0 0 1 2.04687,-0.002 430.30382,99.622971 0 0 1 0.25196,0 430.30382,99.622971 0 0 1 2.04882,0.002 430.30382,99.622971 0 0 1 2.04688,0.004 430.30382,99.622971 0 0 1 2.04688,0.004 430.30382,99.622971 0 0 1 2.04687,0.008 430.30382,99.622971 0 0 1 2.04687,0.0117 430.30382,99.622971 0 0 1 2.04688,0.0117 430.30382,99.622971 0 0 1 2.04688,0.0156 430.30382,99.622971 0 0 1 2.04687,0.0156 430.30382,99.622971 0 0 1 2.04492,0.0195 430.30382,99.622971 0 0 1 2.04688,0.0215 430.30382,99.622971 0 0 1 2.04492,0.0234 430.30382,99.622971 0 0 1 2.04297,0.0254 430.30382,99.622971 0 0 1 2.04492,0.0293 430.30382,99.622971 0 0 1 2.04297,0.0293 430.30382,99.622971 0 0 1 2.04297,0.0332 430.30382,99.622971 0 0 1 2.04101,0.0352 430.30382,99.622971 0 0 1 2.04102,0.0371 430.30382,99.622971 0 0 1 2.04101,0.0391 430.30382,99.622971 0 0 1 2.03907,0.043 430.30382,99.622971 0 0 1 2.03906,0.043 430.30382,99.622971 0 0 1 2.03711,0.0469 430.30382,99.622971 0 0 1 2.03711,0.0469 430.30382,99.622971 0 0 1 2.03515,0.0508 430.30382,99.622971 0 0 1 2.03516,0.0527 430.30382,99.622971 0 0 1 2.0332,0.0566 430.30382,99.622971 0 0 1 2.03321,0.0566 430.30382,99.622971 0 0 1 2.03125,0.0605 430.30382,99.622971 0 0 1 2.02929,0.0606 430.30382,99.622971 0 0 1 2.0293,0.0644 430.30382,99.622971 0 0 1 2.02734,0.0664 430.30382,99.622971 0 0 1 2.02539,0.0684 430.30382,99.622971 0 0 1 2.0254,0.0703 430.30382,99.622971 0 0 1 2.02343,0.0742 430.30382,99.622971 0 0 1 2.02149,0.0742 430.30382,99.622971 0 0 1 2.01953,0.0781 430.30382,99.622971 0 0 1 2.01758,0.0801 430.30382,99.622971 0 0 1 2.01757,0.082 430.30382,99.622971 0 0 1 2.01368,0.084 430.30382,99.622971 0 0 1 2.01367,0.0859 430.30382,99.622971 0 0 1 2.01172,0.0879 430.30382,99.622971 0 0 1 2.00976,0.0918 430.30382,99.622971 0 0 1 2.00781,0.0918 430.30382,99.622971 0 0 1 2.00586,0.0957 430.30382,99.622971 0 0 1 2.00391,0.0977 430.30382,99.622971 0 0 1 2.00195,0.0996 430.30382,99.622971 0 0 1 1.99805,0.10156 430.30382,99.622971 0 0 1 1.99805,0.10352 430.30382,99.622971 0 0 1 1.99609,0.10742 430.30382,99.622971 0 0 1 1.99219,0.10742 430.30382,99.622971 0 0 1 1.99219,0.11133 430.30382,99.622971 0 0 1 1.98828,0.11328 430.30382,99.622971 0 0 1 1.98633,0.11523 430.30382,99.622971 0 0 1 1.98437,0.11719 430.30382,99.622971 0 0 1 1.98047,0.11914 430.30382,99.622971 0 0 1 1.97852,0.1211 430.30382,99.622971 0 0 1 1.97656,0.12304 430.30382,99.622971 0 0 1 1.97461,0.12696 430.30382,99.622971 0 0 1 1.9707,0.12695 430.30382,99.622971 0 0 1 1.96875,0.13086 430.30382,99.622971 0 0 1 1.9668,0.13281 430.30382,99.622971 0 0 1 1.96289,0.13477 430.30382,99.622971 0 0 1 1.96093,0.13671 430.30382,99.622971 0 0 1 1.95704,0.13868 430.30382,99.622971 0 0 1 1.95507,0.14062 430.30382,99.622971 0 0 1 1.95118,0.14258 430.30382,99.622971 0 0 1 1.94921,0.14648 430.30382,99.622971 0 0 1 1.94532,0.14649 430.30382,99.622971 0 0 1 1.94336,0.15039 430.30382,99.622971 0 0 1 1.93945,0.15234 430.30382,99.622971 0 0 1 1.9375,0.1543 430.30382,99.622971 0 0 1 1.93164,0.1543 430.30382,99.622971 0 0 1 1.93164,0.1582 430.30382,99.622971 0 0 1 1.92578,0.16016 430.30382,99.622971 0 0 1 1.92383,0.16406 430.30382,99.622971 0 0 1 1.91992,0.16406 430.30382,99.622971 0 0 1 1.91797,0.16602 430.30382,99.622971 0 0 1 1.91211,0.16992 430.30382,99.622971 0 0 1 1.91016,0.16992 430.30382,99.622971 0 0 1 1.90625,0.17383 430.30382,99.622971 0 0 1 1.90234,0.17383 430.30382,99.622971 0 0 1 1.90039,0.17773 430.30382,99.622971 0 0 1 1.89453,0.17969 430.30382,99.622971 0 0 1 1.89258,0.18164 430.30382,99.622971 0 0 1 1.88672,0.18359 430.30382,99.622971 0 0 1 1.88477,0.1836 430.30382,99.622971 0 0 1 1.88085,0.18945 430.30382,99.622971 0 0 1 1.87696,0.18945 430.30382,99.622971 0 0 1 1.87109,0.19141 430.30382,99.622971 0 0 1 1.86914,0.19336 430.30382,99.622971 0 0 1 1.86524,0.19531 430.30382,99.622971 0 0 1 1.85937,0.19922 430.30382,99.622971 0 0 1 1.85742,0.19922 430.30382,99.622971 0 0 1 1.85157,0.20117 430.30382,99.622971 0 0 1 1.84765,0.20508 430.30382,99.622971 0 0 1 1.84571,0.20508 430.30382,99.622971 0 0 1 1.83789,0.20898 430.30382,99.622971 0 0 1 1.83593,0.20899 430.30382,99.622971 0 0 1 1.83203,0.21289 430.30382,99.622971 0 0 1 1.82618,0.21484 430.30382,99.622971 0 0 1 1.82226,0.21484 430.30382,99.622971 0 0 1 1.81836,0.21875 430.30382,99.622971 0 0 1 1.8125,0.22071 430.30382,99.622971 0 0 1 1.80859,0.2207 430.30382,99.622971 0 0 1 1.80469,0.22461 430.30382,99.622971 0 0 1 1.79883,0.22656 430.30382,99.622971 0 0 1 1.79492,0.22852 430.30382,99.622971 0 0 1 1.79102,0.22851 430.30382,99.622971 0 0 1 1.78515,0.23242 430.30382,99.622971 0 0 1 1.78125,0.23438 430.30382,99.622971 0 0 1 1.7754,0.23633 430.30382,99.622971 0 0 1 1.77148,0.23828 430.30382,99.622971 0 0 1 1.76562,0.23828 430.30382,99.622971 0 0 1 1.75977,0.24219 430.30382,99.622971 0 0 1 1.75586,0.24414 430.30382,99.622971 0 0 1 1.75195,0.24609 430.30382,99.622971 0 0 1 1.7461,0.24805 430.30382,99.622971 0 0 1 1.74023,0.24805 430.30382,99.622971 0 0 1 1.73633,0.25195 430.30382,99.622971 0 0 1 1.73047,0.25391 430.30382,99.622971 0 0 1 1.72461,0.25585 430.30382,99.622971 0 0 1 1.7207,0.25586 430.30382,99.622971 0 0 1 1.71484,0.25977 430.30382,99.622971 0 0 1 1.70899,0.25977 430.30382,99.622971 0 0 1 1.70508,0.26367 430.30382,99.622971 0 0 1 1.69726,0.26367 430.30382,99.622971 0 0 1 1.69336,0.26758 430.30382,99.622971 0 0 1 1.6875,0.26758 430.30382,99.622971 0 0 1 1.68359,0.27148 430.30382,99.622971 0 0 1 1.67579,0.27148 430.30382,99.622971 0 0 1 1.66992,0.27344 430.30382,99.622971 0 0 1 1.66601,0.27735 430.30382,99.622971 0 0 1 1.66016,0.27734 430.30382,99.622971 0 0 1 1.65234,0.2793 430.30382,99.622971 0 0 1 1.64844,0.28125 430.30382,99.622971 0 0 1 1.64258,0.2832 430.30382,99.622971 0 0 1 1.63672,0.28516 430.30382,99.622971 0 0 1 1.63086,0.28515 430.30382,99.622971 0 0 1 1.625,0.28906 430.30382,99.622971 0 0 1 1.61914,0.29102 430.30382,99.622971 0 0 1 1.61133,0.29102 430.30382,99.622971 0 0 1 1.60742,0.29492 430.30382,99.622971 0 0 1 1.59961,0.29492 430.30382,99.622971 0 0 1 1.5957,0.29687 430.30382,99.622971 0 0 1 1.58789,0.29883 430.30382,99.622971 0 0 1 1.58203,0.30078 430.30382,99.622971 0 0 1 1.57617,0.30274 430.30382,99.622971 0 0 1 1.57032,0.30469 430.30382,99.622971 0 0 1 1.56445,0.30664 430.30382,99.622971 0 0 1 1.55664,0.30664 430.30382,99.622971 0 0 1 1.55078,0.31054 430.30382,99.622971 0 0 1 1.54492,0.31055 430.30382,99.622971 0 0 1 1.53711,0.3125 430.30382,99.622971 0 0 1 1.53125,0.31445 430.30382,99.622971 0 0 1 1.52539,0.31641 430.30382,99.622971 0 0 1 1.51953,0.31836 430.30382,99.622971 0 0 1 1.51172,0.32031 430.30382,99.622971 0 0 1 1.50586,0.32031 430.30382,99.622971 0 0 1 1.49805,0.32422 430.30382,99.622971 0 0 1 1.49219,0.32422 430.30382,99.622971 0 0 1 1.48633,0.32617 430.30382,99.622971 0 0 1 1.47851,0.32813 430.30382,99.622971 0 0 1 1.47266,0.32812 430.30382,99.622971 0 0 1 1.46484,0.33203 430.30382,99.622971 0 0 1 1.45899,0.33204 430.30382,99.622971 0 0 1 1.45117,0.33398 430.30382,99.622971 0 0 1 1.44531,0.33594 430.30382,99.622971 0 0 1 1.4375,0.33789 430.30382,99.622971 0 0 1 1.43164,0.33984 430.30382,99.622971 0 0 1 1.42383,0.33985 430.30382,99.622971 0 0 1 1.41601,0.34179 430.30382,99.622971 0 0 1 1.41016,0.34375 430.30382,99.622971 0 0 1 1.40234,0.34571 430.30382,99.622971 0 0 1 1.39649,0.34765 430.30382,99.622971 0 0 1 1.38867,0.34766 430.30382,99.622971 0 0 1 1.38086,0.34961 430.30382,99.622971 0 0 1 0.43945,0.11133 A 365.05755,365.05755 0 0 0 670.80859,358.16211 365.05755,365.05755 0 0 0 305.75,-6.8964844 Z"
       transform="matrix(0.26458333,0,0,0.26458333,5.5446226,72.464971)" />
    <path
       id="path952"
       style="fill:#00c0f8;fill-opacity:1;stroke:none;stroke-width:25.9931;stroke-linecap:round"
       d="M 302.62305,122.28125 A 283.65445,283.65445 0 0 0 18.966797,405.9375 a 283.65445,283.65445 0 0 0 65.753906,181.59961 430.30382,99.622971 0 0 1 0.03516,-0.004 430.30382,99.622971 0 0 1 1.894532,-0.17968 430.30382,99.622971 0 0 1 1.898437,-0.17774 430.30382,99.622971 0 0 1 1.902344,-0.17383 430.30382,99.622971 0 0 1 1.90625,-0.17383 430.30382,99.622971 0 0 1 1.910156,-0.17187 430.30382,99.622971 0 0 1 1.91211,-0.16797 430.30382,99.622971 0 0 1 1.916015,-0.16797 430.30382,99.622971 0 0 1 1.919913,-0.16406 430.30382,99.622971 0 0 1 1.92383,-0.16211 430.30382,99.622971 0 0 1 1.92578,-0.16211 430.30382,99.622971 0 0 1 1.92969,-0.1582 430.30382,99.622971 0 0 1 1.9336,-0.15625 430.30382,99.622971 0 0 1 1.93554,-0.1543 430.30382,99.622971 0 0 1 1.93946,-0.15039 430.30382,99.622971 0 0 1 1.94336,-0.15039 430.30382,99.622971 0 0 1 1.94531,-0.14844 430.30382,99.622971 0 0 1 1.94726,-0.14453 430.30382,99.622971 0 0 1 1.95117,-0.14453 430.30382,99.622971 0 0 1 1.95508,-0.14062 430.30382,99.622971 0 0 1 1.95703,-0.14063 430.30382,99.622971 0 0 1 1.96094,-0.13672 430.30382,99.622971 0 0 1 1.96289,-0.13476 430.30382,99.622971 0 0 1 1.96485,-0.13282 430.30382,99.622971 0 0 1 1.96875,-0.1289 430.30382,99.622971 0 0 1 1.9707,-0.12891 430.30382,99.622971 0 0 1 1.97461,-0.12695 430.30382,99.622971 0 0 1 1.97461,-0.12305 430.30382,99.622971 0 0 1 1.97851,-0.12305 430.30382,99.622971 0 0 1 1.98243,-0.11914 430.30382,99.622971 0 0 1 1.98242,-0.11718 430.30382,99.622971 0 0 1 1.98633,-0.11524 430.30382,99.622971 0 0 1 1.98828,-0.11328 430.30382,99.622971 0 0 1 1.99023,-0.11133 430.30382,99.622971 0 0 1 1.99414,-0.10742 430.30382,99.622971 0 0 1 1.99414,-0.10742 430.30382,99.622971 0 0 1 1.99805,-0.10352 430.30382,99.622971 0 0 1 2,-0.10351 430.30382,99.622971 0 0 1 2,-0.0996 430.30382,99.622971 0 0 1 2.00391,-0.0977 430.30382,99.622971 0 0 1 2.00586,-0.0957 430.30382,99.622971 0 0 1 2.00781,-0.0918 430.30382,99.622971 0 0 1 2.00976,-0.0918 430.30382,99.622971 0 0 1 2.00977,-0.0879 430.30382,99.622971 0 0 1 2.01367,-0.0879 430.30382,99.622971 0 0 1 2.01563,-0.084 430.30382,99.622971 0 0 1 2.01562,-0.082 430.30382,99.622971 0 0 1 2.01758,-0.0801 430.30382,99.622971 0 0 1 2.01953,-0.0781 430.30382,99.622971 0 0 1 2.02148,-0.0762 430.30382,99.622971 0 0 1 2.02344,-0.0723 430.30382,99.622971 0 0 1 2.02539,-0.0703 430.30382,99.622971 0 0 1 2.02539,-0.0703 430.30382,99.622971 0 0 1 2.02735,-0.0664 430.30382,99.622971 0 0 1 2.02734,-0.0645 430.30382,99.622971 0 0 1 2.0293,-0.0625 430.30382,99.622971 0 0 1 2.03125,-0.0586 430.30382,99.622971 0 0 1 2.0332,-0.0586 430.30382,99.622971 0 0 1 2.0332,-0.0547 430.30382,99.622971 0 0 1 2.03516,-0.0527 430.30382,99.622971 0 0 1 2.03516,-0.0508 430.30382,99.622971 0 0 1 2.03711,-0.0488 430.30382,99.622971 0 0 1 2.0371,-0.0469 430.30382,99.622971 0 0 1 2.03907,-0.0449 430.30382,99.622971 0 0 1 2.03906,-0.041 430.30382,99.622971 0 0 1 2.04102,-0.041 430.30382,99.622971 0 0 1 2.04101,-0.0371 430.30382,99.622971 0 0 1 2.04102,-0.0352 430.30382,99.622971 0 0 1 2.04297,-0.0332 430.30382,99.622971 0 0 1 2.04296,-0.0293 430.30382,99.622971 0 0 1 2.04297,-0.0293 430.30382,99.622971 0 0 1 2.04492,-0.0254 430.30382,99.622971 0 0 1 2.04493,-0.0254 430.30382,99.622971 0 0 1 2.04492,-0.0215 430.30382,99.622971 0 0 1 2.04687,-0.0195 430.30382,99.622971 0 0 1 2.04493,-0.0156 430.30382,99.622971 0 0 1 2.04687,-0.0156 430.30382,99.622971 0 0 1 2.04688,-0.0137 430.30382,99.622971 0 0 1 2.04687,-0.01 430.30382,99.622971 0 0 1 2.04688,-0.008 430.30382,99.622971 0 0 1 2.04687,-0.006 430.30382,99.622971 0 0 1 2.04883,-0.004 430.30382,99.622971 0 0 1 2.04687,-0.002 430.30382,99.622971 0 0 1 0.25196,0 430.30382,99.622971 0 0 1 2.04882,0.002 430.30382,99.622971 0 0 1 2.04688,0.004 430.30382,99.622971 0 0 1 2.04688,0.004 430.30382,99.622971 0 0 1 2.04687,0.008 430.30382,99.622971 0 0 1 2.04687,0.0117 430.30382,99.622971 0 0 1 2.04688,0.0117 430.30382,99.622971 0 0 1 2.04688,0.0156 430.30382,99.622971 0 0 1 2.04687,0.0156 430.30382,99.622971 0 0 1 2.04492,0.0195 430.30382,99.622971 0 0 1 2.04688,0.0215 430.30382,99.622971 0 0 1 2.04492,0.0234 430.30382,99.622971 0 0 1 2.04297,0.0254 430.30382,99.622971 0 0 1 2.04492,0.0293 430.30382,99.622971 0 0 1 2.04297,0.0293 430.30382,99.622971 0 0 1 2.04297,0.0332 430.30382,99.622971 0 0 1 2.04101,0.0352 430.30382,99.622971 0 0 1 2.04102,0.0371 430.30382,99.622971 0 0 1 2.04101,0.0391 430.30382,99.622971 0 0 1 2.03907,0.043 430.30382,99.622971 0 0 1 2.03906,0.043 430.30382,99.622971 0 0 1 2.03711,0.0469 430.30382,99.622971 0 0 1 2.03711,0.0469 430.30382,99.622971 0 0 1 2.03515,0.0508 430.30382,99.622971 0 0 1 2.03516,0.0527 430.30382,99.622971 0 0 1 2.0332,0.0566 430.30382,99.622971 0 0 1 2.03321,0.0566 430.30382,99.622971 0 0 1 2.03125,0.0605 430.30382,99.622971 0 0 1 2.02929,0.0606 430.30382,99.622971 0 0 1 2.0293,0.0644 430.30382,99.622971 0 0 1 2.02734,0.0664 430.30382,99.622971 0 0 1 2.02539,0.0684 430.30382,99.622971 0 0 1 2.0254,0.0703 430.30382,99.622971 0 0 1 2.02343,0.0742 430.30382,99.622971 0 0 1 2.02149,0.0742 430.30382,99.622971 0 0 1 2.01953,0.0781 430.30382,99.622971 0 0 1 2.01758,0.0801 430.30382,99.622971 0 0 1 2.01757,0.082 430.30382,99.622971 0 0 1 2.01368,0.084 430.30382,99.622971 0 0 1 2.01367,0.0859 430.30382,99.622971 0 0 1 2.01172,0.0879 430.30382,99.622971 0 0 1 2.00976,0.0918 430.30382,99.622971 0 0 1 2.00781,0.0918 430.30382,99.622971 0 0 1 2.00586,0.0957 430.30382,99.622971 0 0 1 2.00391,0.0977 430.30382,99.622971 0 0 1 2.00195,0.0996 430.30382,99.622971 0 0 1 1.99805,0.10156 430.30382,99.622971 0 0 1 1.99805,0.10352 430.30382,99.622971 0 0 1 1.99609,0.10742 430.30382,99.622971 0 0 1 1.99219,0.10742 430.30382,99.622971 0 0 1 1.99219,0.11133 430.30382,99.622971 0 0 1 1.98828,0.11328 430.30382,99.622971 0 0 1 1.98633,0.11523 430.30382,99.622971 0 0 1 1.98437,0.11719 430.30382,99.622971 0 0 1 1.98047,0.11914 430.30382,99.622971 0 0 1 1.97852,0.1211 430.30382,99.622971 0 0 1 1.97656,0.12304 430.30382,99.622971 0 0 1 1.97461,0.12696 430.30382,99.622971 0 0 1 1.9707,0.12695 430.30382,99.622971 0 0 1 1.96875,0.13086 430.30382,99.622971 0 0 1 1.9668,0.13281 430.30382,99.622971 0 0 1 1.96289,0.13477 430.30382,99.622971 0 0 1 1.96093,0.13671 430.30382,99.622971 0 0 1 1.95704,0.13868 430.30382,99.622971 0 0 1 1.95507,0.14062 430.30382,99.622971 0 0 1 1.95118,0.14258 430.30382,99.622971 0 0 1 1.94921,0.14648 430.30382,99.622971 0 0 1 1.94532,0.14649 430.30382,99.622971 0 0 1 1.94336,0.15039 430.30382,99.622971 0 0 1 1.93945,0.15234 430.30382,99.622971 0 0 1 1.9375,0.1543 430.30382,99.622971 0 0 1 1.93164,0.1543 430.30382,99.622971 0 0 1 1.93164,0.1582 430.30382,99.622971 0 0 1 1.92578,0.16016 430.30382,99.622971 0 0 1 1.92383,0.16406 430.30382,99.622971 0 0 1 1.91992,0.16406 430.30382,99.622971 0 0 1 1.91797,0.16602 430.30382,99.622971 0 0 1 1.91211,0.16992 430.30382,99.622971 0 0 1 1.91016,0.16992 430.30382,99.622971 0 0 1 1.90625,0.17383 430.30382,99.622971 0 0 1 1.90234,0.17383 430.30382,99.622971 0 0 1 1.90039,0.17773 430.30382,99.622971 0 0 1 1.89453,0.17969 430.30382,99.622971 0 0 1 1.89258,0.18164 430.30382,99.622971 0 0 1 1.88672,0.18359 430.30382,99.622971 0 0 1 1.88477,0.1836 430.30382,99.622971 0 0 1 1.88085,0.18945 430.30382,99.622971 0 0 1 1.87696,0.18945 430.30382,99.622971 0 0 1 1.87109,0.19141 430.30382,99.622971 0 0 1 1.86914,0.19336 430.30382,99.622971 0 0 1 1.86524,0.19531 430.30382,99.622971 0 0 1 1.85937,0.19922 430.30382,99.622971 0 0 1 1.85742,0.19922 430.30382,99.622971 0 0 1 1.85157,0.20117 430.30382,99.622971 0 0 1 1.84765,0.20508 430.30382,99.622971 0 0 1 1.84571,0.20508 430.30382,99.622971 0 0 1 1.83789,0.20898 430.30382,99.622971 0 0 1 1.83593,0.20899 430.30382,99.622971 0 0 1 1.83203,0.21289 430.30382,99.622971 0 0 1 1.82618,0.21484 430.30382,99.622971 0 0 1 1.82226,0.21484 430.30382,99.622971 0 0 1 1.81836,0.21875 430.30382,99.622971 0 0 1 1.8125,0.22071 430.30382,99.622971 0 0 1 1.80859,0.2207 430.30382,99.622971 0 0 1 1.80469,0.22461 430.30382,99.622971 0 0 1 1.79883,0.22656 430.30382,99.622971 0 0 1 1.79492,0.22852 430.30382,99.622971 0 0 1 1.79102,0.22851 430.30382,99.622971 0 0 1 1.78515,0.23242 430.30382,99.622971 0 0 1 1.78125,0.23438 430.30382,99.622971 0 0 1 1.7754,0.23633 430.30382,99.622971 0 0 1 1.77148,0.23828 430.30382,99.622971 0 0 1 1.76562,0.23828 430.30382,99.622971 0 0 1 1.75977,0.24219 430.30382,99.622971 0 0 1 1.75586,0.24414 430.30382,99.622971 0 0 1 1.75195,0.24609 430.30382,99.622971 0 0 1 1.7461,0.24805 430.30382,99.622971 0 0 1 1.74023,0.24805 430.30382,99.622971 0 0 1 1.73633,0.25195 430.30382,99.622971 0 0 1 1.73047,0.25391 430.30382,99.622971 0 0 1 1.72461,0.25585 430.30382,99.622971 0 0 1 1.7207,0.25586 430.30382,99.622971 0 0 1 1.71484,0.25977 430.30382,99.622971 0 0 1 1.70899,0.25977 430.30382,99.622971 0 0 1 1.70508,0.26367 430.30382,99.622971 0 0 1 1.69726,0.26367 430.30382,99.622971 0 0 1 1.69336,0.26758 430.30382,99.622971 0 0 1 1.6875,0.26758 430.30382,99.622971 0 0 1 1.68359,0.27148 430.30382,99.622971 0 0 1 1.67579,0.27148 430.30382,99.622971 0 0 1 1.66992,0.27344 430.30382,99.622971 0 0 1 1.66601,0.27735 430.30382,99.622971 0 0 1 1.66016,0.27734 430.30382,99.622971 0 0 1 1.65234,0.2793 430.30382,99.622971 0 0 1 1.64844,0.28125 430.30382,99.622971 0 0 1 1.64258,0.2832 430.30382,99.622971 0 0 1 1.63672,0.28516 430.30382,99.622971 0 0 1 1.08594,0.18945 283.65445,283.65445 0 0 0 77.11132,-194.4174 283.65445,283.65445 0 0 0 -283.65429,-283.65625 z"
       transform="matrix(0.26458333,0,0,0.26458333,5.5446226,72.464971)" />
    <path
       id="path955"
       style="fill:#94e4fc;fill-opacity:1;stroke:none;stroke-width:18.3358;stroke-linecap:round"
       d="m 304.50781,281.45508 a 200.09329,200.09329 0 0 0 -199.81054,200.09375 200.09329,200.09329 0 0 0 28.04492,102.1582 430.30382,99.622971 0 0 1 0.38867,-0.0254 430.30382,99.622971 0 0 1 1.97461,-0.12695 430.30382,99.622971 0 0 1 1.97461,-0.12305 430.30382,99.622971 0 0 1 1.97851,-0.12305 430.30382,99.622971 0 0 1 1.98243,-0.11914 430.30382,99.622971 0 0 1 1.98242,-0.11718 430.30382,99.622971 0 0 1 1.98633,-0.11524 430.30382,99.622971 0 0 1 1.98828,-0.11328 430.30382,99.622971 0 0 1 1.99023,-0.11133 430.30382,99.622971 0 0 1 1.99414,-0.10742 430.30382,99.622971 0 0 1 1.99414,-0.10742 430.30382,99.622971 0 0 1 1.99805,-0.10352 430.30382,99.622971 0 0 1 2,-0.10351 430.30382,99.622971 0 0 1 2,-0.0996 430.30382,99.622971 0 0 1 2.00391,-0.0977 430.30382,99.622971 0 0 1 2.00586,-0.0957 430.30382,99.622971 0 0 1 2.00781,-0.0918 430.30382,99.622971 0 0 1 2.00976,-0.0918 430.30382,99.622971 0 0 1 2.00977,-0.0879 430.30382,99.622971 0 0 1 2.01367,-0.0879 430.30382,99.622971 0 0 1 2.01563,-0.084 430.30382,99.622971 0 0 1 2.01562,-0.082 430.30382,99.622971 0 0 1 2.01758,-0.0801 430.30382,99.622971 0 0 1 2.01953,-0.0781 430.30382,99.622971 0 0 1 2.02148,-0.0762 430.30382,99.622971 0 0 1 2.02344,-0.0723 430.30382,99.622971 0 0 1 2.02539,-0.0703 430.30382,99.622971 0 0 1 2.02539,-0.0703 430.30382,99.622971 0 0 1 2.02735,-0.0664 430.30382,99.622971 0 0 1 2.02734,-0.0645 430.30382,99.622971 0 0 1 2.0293,-0.0625 430.30382,99.622971 0 0 1 2.03125,-0.0586 430.30382,99.622971 0 0 1 2.0332,-0.0586 430.30382,99.622971 0 0 1 2.0332,-0.0547 430.30382,99.622971 0 0 1 2.03516,-0.0527 430.30382,99.622971 0 0 1 2.03516,-0.0508 430.30382,99.622971 0 0 1 2.03711,-0.0488 430.30382,99.622971 0 0 1 2.0371,-0.0469 430.30382,99.622971 0 0 1 2.03907,-0.0449 430.30382,99.622971 0 0 1 2.03906,-0.041 430.30382,99.622971 0 0 1 2.04102,-0.041 430.30382,99.622971 0 0 1 2.04101,-0.0371 430.30382,99.622971 0 0 1 2.04102,-0.0352 430.30382,99.622971 0 0 1 2.04297,-0.0332 430.30382,99.622971 0 0 1 2.04296,-0.0293 430.30382,99.622971 0 0 1 2.04297,-0.0293 430.30382,99.622971 0 0 1 2.04492,-0.0254 430.30382,99.622971 0 0 1 2.04493,-0.0254 430.30382,99.622971 0 0 1 2.04492,-0.0215 430.30382,99.622971 0 0 1 2.04687,-0.0195 430.30382,99.622971 0 0 1 2.04493,-0.0156 430.30382,99.622971 0 0 1 2.04687,-0.0156 430.30382,99.622971 0 0 1 2.04688,-0.0137 430.30382,99.622971 0 0 1 2.04687,-0.01 430.30382,99.622971 0 0 1 2.04688,-0.008 430.30382,99.622971 0 0 1 2.04687,-0.006 430.30382,99.622971 0 0 1 2.04883,-0.004 430.30382,99.622971 0 0 1 2.04687,-0.002 430.30382,99.622971 0 0 1 0.25196,0 430.30382,99.622971 0 0 1 2.04882,0.002 430.30382,99.622971 0 0 1 2.04688,0.004 430.30382,99.622971 0 0 1 2.04688,0.004 430.30382,99.622971 0 0 1 2.04687,0.008 430.30382,99.622971 0 0 1 2.04687,0.0117 430.30382,99.622971 0 0 1 2.04688,0.0117 430.30382,99.622971 0 0 1 2.04688,0.0156 430.30382,99.622971 0 0 1 2.04687,0.0156 430.30382,99.622971 0 0 1 2.04492,0.0195 430.30382,99.622971 0 0 1 2.04688,0.0215 430.30382,99.622971 0 0 1 2.04492,0.0234 430.30382,99.622971 0 0 1 2.04297,0.0254 430.30382,99.622971 0 0 1 2.04492,0.0293 430.30382,99.622971 0 0 1 2.04297,0.0293 430.30382,99.622971 0 0 1 2.04297,0.0332 430.30382,99.622971 0 0 1 2.04101,0.0352 430.30382,99.622971 0 0 1 2.04102,0.0371 430.30382,99.622971 0 0 1 2.04101,0.0391 430.30382,99.622971 0 0 1 2.03907,0.043 430.30382,99.622971 0 0 1 2.03906,0.043 430.30382,99.622971 0 0 1 2.03711,0.0469 430.30382,99.622971 0 0 1 2.03711,0.0469 430.30382,99.622971 0 0 1 2.03515,0.0508 430.30382,99.622971 0 0 1 2.03516,0.0527 430.30382,99.622971 0 0 1 2.0332,0.0566 430.30382,99.622971 0 0 1 2.03321,0.0566 430.30382,99.622971 0 0 1 2.03125,0.0605 430.30382,99.622971 0 0 1 2.02929,0.0606 430.30382,99.622971 0 0 1 2.0293,0.0644 430.30382,99.622971 0 0 1 2.02734,0.0664 430.30382,99.622971 0 0 1 2.02539,0.0684 430.30382,99.622971 0 0 1 2.0254,0.0703 430.30382,99.622971 0 0 1 2.02343,0.0742 430.30382,99.622971 0 0 1 2.02149,0.0742 430.30382,99.622971 0 0 1 2.01953,0.0781 430.30382,99.622971 0 0 1 2.01758,0.0801 430.30382,99.622971 0 0 1 2.01757,0.082 430.30382,99.622971 0 0 1 2.01368,0.084 430.30382,99.622971 0 0 1 2.01367,0.0859 430.30382,99.622971 0 0 1 2.01172,0.0879 430.30382,99.622971 0 0 1 2.00976,0.0918 430.30382,99.622971 0 0 1 2.00781,0.0918 430.30382,99.622971 0 0 1 2.00586,0.0957 430.30382,99.622971 0 0 1 2.00391,0.0977 430.30382,99.622971 0 0 1 2.00195,0.0996 430.30382,99.622971 0 0 1 1.99805,0.10156 430.30382,99.622971 0 0 1 1.99805,0.10352 430.30382,99.622971 0 0 1 1.99609,0.10742 430.30382,99.622971 0 0 1 1.99219,0.10742 430.30382,99.622971 0 0 1 1.99219,0.11133 430.30382,99.622971 0 0 1 1.98828,0.11328 430.30382,99.622971 0 0 1 1.98633,0.11523 430.30382,99.622971 0 0 1 1.98437,0.11719 430.30382,99.622971 0 0 1 1.98047,0.11914 430.30382,99.622971 0 0 1 1.97852,0.1211 430.30382,99.622971 0 0 1 1.97656,0.12304 430.30382,99.622971 0 0 1 1.97461,0.12696 430.30382,99.622971 0 0 1 1.9707,0.12695 430.30382,99.622971 0 0 1 1.96875,0.13086 430.30382,99.622971 0 0 1 1.9668,0.13281 430.30382,99.622971 0 0 1 1.96289,0.13477 430.30382,99.622971 0 0 1 1.96093,0.13671 430.30382,99.622971 0 0 1 1.95704,0.13868 430.30382,99.622971 0 0 1 1.95507,0.14062 430.30382,99.622971 0 0 1 1.95118,0.14258 430.30382,99.622971 0 0 1 1.94921,0.14648 430.30382,99.622971 0 0 1 1.94532,0.14649 430.30382,99.622971 0 0 1 1.94336,0.15039 430.30382,99.622971 0 0 1 1.93945,0.15234 430.30382,99.622971 0 0 1 1.9375,0.1543 430.30382,99.622971 0 0 1 1.93164,0.1543 430.30382,99.622971 0 0 1 1.93164,0.1582 430.30382,99.622971 0 0 1 1.92578,0.16016 430.30382,99.622971 0 0 1 1.92383,0.16406 430.30382,99.622971 0 0 1 1.91992,0.16406 430.30382,99.622971 0 0 1 1.91797,0.16602 430.30382,99.622971 0 0 1 1.91211,0.16992 430.30382,99.622971 0 0 1 1.91016,0.16992 430.30382,99.622971 0 0 1 1.90625,0.17383 430.30382,99.622971 0 0 1 1.90234,0.17383 430.30382,99.622971 0 0 1 1.90039,0.17773 430.30382,99.622971 0 0 1 1.89453,0.17969 430.30382,99.622971 0 0 1 1.89258,0.18164 430.30382,99.622971 0 0 1 1.88672,0.18359 430.30382,99.622971 0 0 1 1.88477,0.1836 430.30382,99.622971 0 0 1 1.88085,0.18945 430.30382,99.622971 0 0 1 1.87696,0.18945 430.30382,99.622971 0 0 1 1.87109,0.19141 430.30382,99.622971 0 0 1 1.86914,0.19336 430.30382,99.622971 0 0 1 1.86524,0.19531 430.30382,99.622971 0 0 1 1.85937,0.19922 430.30382,99.622971 0 0 1 1.85742,0.19922 430.30382,99.622971 0 0 1 1.85157,0.20117 430.30382,99.622971 0 0 1 1.84765,0.20508 430.30382,99.622971 0 0 1 1.84571,0.20508 430.30382,99.622971 0 0 1 1.83789,0.20898 430.30382,99.622971 0 0 1 1.83593,0.20899 430.30382,99.622971 0 0 1 1.83203,0.21289 430.30382,99.622971 0 0 1 1.82618,0.21484 430.30382,99.622971 0 0 1 1.82226,0.21484 430.30382,99.622971 0 0 1 1.81836,0.21875 430.30382,99.622971 0 0 1 1.8125,0.22071 430.30382,99.622971 0 0 1 1.80859,0.2207 430.30382,99.622971 0 0 1 1.80469,0.22461 430.30382,99.622971 0 0 1 1.79883,0.22656 430.30382,99.622971 0 0 1 1.79492,0.22852 430.30382,99.622971 0 0 1 1.79102,0.22851 430.30382,99.622971 0 0 1 1.78515,0.23242 430.30382,99.622971 0 0 1 1.78125,0.23438 430.30382,99.622971 0 0 1 1.7754,0.23633 430.30382,99.622971 0 0 1 1.77148,0.23828 430.30382,99.622971 0 0 1 1.76562,0.23828 430.30382,99.622971 0 0 1 1.75977,0.24219 430.30382,99.622971 0 0 1 1.10352,0.1543 200.09329,200.09329 0 0 0 34.74804,-112.68555 200.09329,200.09329 0 0 0 -200.09179,-200.09375 200.09329,200.09329 0 0 0 -0.28321,0 z"
       transform="matrix(0.26458333,0,0,0.26458333,5.5446226,72.464971)" />
  </g>
  <g
     inkscape:label="Layer 1"
     inkscape:groupmode="layer"
     id="layer1"
     style="display:inline"
     transform="translate(25.687842,-45.624265)">
    <path
       style="fill:#0d0d0d;fill-opacity:1;stroke:none;stroke-width:1.80566;stroke-linecap:round;stroke-miterlimit:4;stroke-dasharray:none;stroke-opacity:1"
       d="m 106.71738,209.92077 -8.380512,25.29852 c -10.70878,3.10377 -10.619471,-0.89663 -15.929202,-1.34495 l 9.99256,-34.90844 z"
       id="path923"
       sodipodi:nodetypes="ccccc"
       inkscape:connector-curvature="0" />
    <path
       style="fill:url(#linearGradient921);fill-opacity:1;stroke:none;stroke-width:1.80566;stroke-linecap:round;stroke-miterlimit:4;stroke-dasharray:none;stroke-opacity:1"
       d="m 83.052499,169.01848 c 18.912621,19.93006 45.435901,8.73074 53.178791,13.49593 0.94565,19.16343 5.79118,38.25934 8.68677,57.38902 -4.836,0.20622 -6.65271,1.62207 -12.28154,-3.40821 L 115.3022,210.46933 c -16.906402,2.74583 -30.772334,-2.18326 -44.158027,-8.3246 z"
       id="path913"
       sodipodi:nodetypes="ccccccc"
       inkscape:connector-curvature="0" />
    <path
       style="fill:url(#linearGradient911);fill-opacity:1;stroke:none;stroke-width:1.80566;stroke-linecap:round;stroke-miterlimit:4;stroke-dasharray:none;stroke-opacity:1"
       d="m 33.603447,166.85595 c -2.114488,17.37451 -13.895415,46.22349 -23.251444,71.66647 6.655915,1.91502 12.941227,3.3147 21.024729,-0.39438 L 50.391121,203.4855 c 6.281372,0.1029 7.624603,1.73184 20.229049,-0.11926 l 11.411791,39.28608 c 8.182879,5.50126 15.444347,2.35645 20.123439,2.58851 l -9.755174,-46.27493 -6.644089,-35.305 z"
       id="path903"
       sodipodi:nodetypes="cccccccccc"
       inkscape:connector-curvature="0" />
    <path
       style="fill:#005eaa;fill-opacity:1;stroke:none;stroke-width:1.80566;stroke-linecap:round;stroke-miterlimit:4;stroke-dasharray:none;stroke-opacity:1"
       d="m 91.181653,163.68434 c 0,0 24.161947,4.02659 28.806997,-4.51092 5.55684,-10.21339 -14.03264,-20.23945 -14.18838,-31.86562 -0.22176,-16.55581 7.82998,-33.663411 18.98174,-45.901991 11.03489,-12.110334 37.16768,-9.053874 36.51047,-7.104226 l 12.06826,42.838077 c 0,0 -21.59358,-7.44883 -31.6994,-4.07696 -8.22643,2.74481 -15.76059,9.96869 -18.64158,18.14842 -3.42188,9.71544 9.32587,22.01542 3.74577,30.67344 -6.27752,9.74014 -33.1665,10.41541 -33.1665,10.41541 z"
       id="path937"
       sodipodi:nodetypes="caasccaaacc"
       inkscape:connector-curvature="0" />
    <path
       style="fill:#008cfc;fill-opacity:1;stroke:none;stroke-width:1.80566;stroke-linecap:round;stroke-miterlimit:4;stroke-dasharray:none;stroke-opacity:1"
       d="m 30.377391,164.89534 c 0,0 -6.086661,5.34086 -6.27409,8.99046 -0.204898,3.98972 5.815891,10.47925 5.815891,10.47925 0,0 19.644237,8.17657 30.002298,8.09487 10.39056,-0.0819 29.964604,-8.59399 29.964604,-8.59399 0,0 9.174524,-7.71524 8.669144,-12.86028 -0.33858,-3.44705 -7.373585,-7.32131 -7.373585,-7.32131 z"
       id="path935"
       sodipodi:nodetypes="cacacacc"
       inkscape:connector-curvature="0" />
    <path
       sodipodi:type="star"
       style="fill:#ffffff;fill-opacity:1;stroke:none;stroke-width:0.751001;stroke-linecap:round;stroke-miterlimit:4;stroke-dasharray:none;stroke-opacity:1"
       id="path989"
       sodipodi:sides="5"
       sodipodi:cx="282.40396"
       sodipodi:cy="247.04797"
       sodipodi:r1="198.80206"
       sodipodi:r2="99.401039"
       sodipodi:arg1="-1.878993"
       sodipodi:arg2="-1.2506745"
       inkscape:flatsided="false"
       inkscape:rounded="0"
       inkscape:randomized="0"
       d="M 222.09919,57.613038 313.6837,152.6968 443.93209,131.15611 381.80323,247.64065 442.53861,364.8578 312.55635,341.76545 219.84448,435.75031 201.63989,304.99391 83.605432,245.86261 202.33663,188.14306 Z"
       inkscape:transform-center-x="-1.1850997"
       inkscape:transform-center-y="0.19296005"
       transform="matrix(0.05433751,0.03708323,-0.03754249,0.04629745,36.051645,163.96727)" />
    <path
       style="fill:url(#linearGradient899);fill-opacity:1;stroke-width:2.47714;stroke-linecap:round"
       d="m 100.9223,138.22747 c 0,0 0.83473,13.18574 -1.408022,20.42349 -7.804895,25.18772 -56.111279,34.33022 -73.962709,1.85704 -3.808378,-6.92774 -0.624237,-24.1663 -0.624237,-24.1663 l 5.120168,-50.242791 27.117944,33.417821 17.354851,-0.2464 34.322035,-14.21215 z"
       id="path10"
       sodipodi:nodetypes="csscccccc"
       inkscape:connector-curvature="0" />
    <path
       id="path12"
       style="fill:#00a0fc;fill-opacity:1;stroke-width:2.24493;stroke-linecap:round"
       d="m 44.865894,135.2101 c -1.270928,-0.0971 -2.556313,0.0299 -3.834344,0.46937 -4.368537,1.50236 -6.491795,12.47734 -6.491795,12.47734 9.125718,6.15344 11.207438,4.53096 23.538777,3.42918 0,0 -0.49081,-2.86521 -1.636292,-5.98989 a 6.6895744,10.691745 0 0 1 -0.02904,0.11192 6.6895744,10.691745 0 0 1 -0.03517,0.13057 6.6895744,10.691745 0 0 1 -0.03601,0.12971 6.6895744,10.691745 0 0 1 -0.03685,0.12884 6.6895744,10.691745 0 0 1 -0.0382,0.12797 6.6895744,10.691745 0 0 1 -0.03945,0.12754 6.6895744,10.691745 0 0 1 -0.04038,0.12623 6.6895744,10.691745 0 0 1 -0.04122,0.12537 6.6895744,10.691745 0 0 1 -0.04248,0.12493 6.6895744,10.691745 0 0 1 -0.0434,0.12364 6.6895744,10.691745 0 0 1 -0.04424,0.12276 6.6895744,10.691745 0 0 1 -0.04558,0.1219 6.6895744,10.691745 0 0 1 -0.04642,0.12103 6.6895744,10.691745 0 0 1 -0.04726,0.11973 6.6895744,10.691745 0 0 1 -0.0486,0.11886 6.6895744,10.691745 0 0 1 -0.04944,0.11799 6.6895744,10.691745 0 0 1 -0.05028,0.11669 6.6895744,10.691745 0 0 1 -0.05163,0.11583 6.6895744,10.691745 0 0 1 -0.05205,0.11452 6.6895744,10.691745 0 0 1 -0.05339,0.11365 6.6895744,10.691745 0 0 1 -0.05423,0.11235 6.6895744,10.691745 0 0 1 -0.05507,0.11106 6.6895744,10.691745 0 0 1 -0.05599,0.11018 6.6895744,10.691745 0 0 1 -0.05725,0.10889 6.6895744,10.691745 0 0 1 -0.05767,0.10758 6.6895744,10.691745 0 0 1 -0.05901,0.10628 6.6895744,10.691745 0 0 1 -0.05943,0.10498 6.6895744,10.691745 0 0 1 -0.06027,0.10411 6.6895744,10.691745 0 0 1 -0.06161,0.10237 6.6895744,10.691745 0 0 1 -0.06204,0.10108 6.6895744,10.691745 0 0 1 -0.06329,0.10021 6.6895744,10.691745 0 0 1 -0.0638,0.0985 6.6895744,10.691745 0 0 1 -0.06464,0.0972 6.6895744,10.691745 0 0 1 -0.06548,0.0959 6.6895744,10.691745 0 0 1 -0.0664,0.0946 6.6895744,10.691745 0 0 1 -0.06682,0.0928 6.6895744,10.691745 0 0 1 -0.06766,0.0915 6.6895744,10.691745 0 0 1 -0.0685,0.0902 6.6895744,10.691745 0 0 1 -0.06942,0.0885 6.6895744,10.691745 0 0 1 -0.07026,0.0872 6.6895744,10.691745 0 0 1 -0.07068,0.0859 6.6895744,10.691745 0 0 1 -0.0711,0.0842 6.6895744,10.691745 0 0 1 -0.07244,0.0824 6.6895744,10.691745 0 0 1 -0.07287,0.0811 6.6895744,10.691745 0 0 1 -0.07328,0.0798 6.6895744,10.691745 0 0 1 -0.07421,0.0781 6.6895744,10.691745 0 0 1 -0.07462,0.0763 6.6895744,10.691745 0 0 1 -0.07548,0.0746 6.6895744,10.691745 0 0 1 -0.07635,0.0733 6.6895744,10.691745 0 0 1 -0.07635,0.0716 6.6895744,10.691745 0 0 1 -0.07721,0.0703 6.6895744,10.691745 0 0 1 -0.07809,0.0681 6.6895744,10.691745 0 0 1 -0.07809,0.0668 6.6895744,10.691745 0 0 1 -0.07895,0.0651 6.6895744,10.691745 0 0 1 -0.07939,0.0634 6.6895744,10.691745 0 0 1 -0.08025,0.0616 6.6895744,10.691745 0 0 1 -0.08025,0.0598 6.6895744,10.691745 0 0 1 -0.08112,0.0581 6.6895744,10.691745 0 0 1 -0.08112,0.0564 6.6895744,10.691745 0 0 1 -0.08199,0.0551 6.6895744,10.691745 0 0 1 -0.08242,0.0529 6.6895744,10.691745 0 0 1 -0.08285,0.0512 6.6895744,10.691745 0 0 1 -0.08329,0.0495 6.6895744,10.691745 0 0 1 -0.08329,0.0477 6.6895744,10.691745 0 0 1 -0.08416,0.046 6.6895744,10.691745 0 0 1 -0.08416,0.0442 6.6895744,10.691745 0 0 1 -0.08502,0.0425 6.6895744,10.691745 0 0 1 -0.08503,0.0408 6.6895744,10.691745 0 0 1 -0.08546,0.0386 6.6895744,10.691745 0 0 1 -0.08546,0.0369 6.6895744,10.691745 0 0 1 -0.08589,0.0352 6.6895744,10.691745 0 0 1 -0.08633,0.0334 6.6895744,10.691745 0 0 1 -0.08676,0.0316 6.6895744,10.691745 0 0 1 -0.08676,0.0295 6.6895744,10.691745 0 0 1 -0.08719,0.0278 6.6895744,10.691745 0 0 1 -0.08719,0.026 6.6895744,10.691745 0 0 1 -0.08719,0.0243 6.6895744,10.691745 0 0 1 -0.08806,0.0222 6.6895744,10.691745 0 0 1 -0.08763,0.0204 6.6895744,10.691745 0 0 1 -0.08806,0.0186 6.6895744,10.691745 0 0 1 -0.08806,0.0164 6.6895744,10.691745 0 0 1 -0.08849,0.0148 6.6895744,10.691745 0 0 1 -0.0885,0.013 6.6895744,10.691745 0 0 1 -0.0885,0.0108 6.6895744,10.691745 0 0 1 -0.0885,0.01 6.6895744,10.691745 0 0 1 -0.08849,0.007 6.6895744,10.691745 0 0 1 -0.08893,0.006 6.6895744,10.691745 0 0 1 -0.08849,0.003 6.6895744,10.691745 0 0 1 -0.08893,0.002 6.6895744,10.691745 0 0 1 -0.03254,0 6.6895744,10.691745 0 0 1 -0.08893,-8.4e-4 6.6895744,10.691745 0 0 1 -0.0885,-0.003 6.6895744,10.691745 0 0 1 -0.08893,-0.005 6.6895744,10.691745 0 0 1 -0.08849,-0.007 6.6895744,10.691745 0 0 1 -0.08893,-0.008 6.6895744,10.691745 0 0 1 -0.0885,-0.0104 6.6895744,10.691745 0 0 1 -0.0885,-0.0122 6.6895744,10.691745 0 0 1 -0.08806,-0.0143 6.6895744,10.691745 0 0 1 -0.08806,-0.016 6.6895744,10.691745 0 0 1 -0.0885,-0.0178 6.6895744,10.691745 0 0 1 -0.08763,-0.0196 6.6895744,10.691745 0 0 1 -0.08763,-0.0217 6.6895744,10.691745 0 0 1 -0.08763,-0.0234 6.6895744,10.691745 0 0 1 -0.08763,-0.0252 6.6895744,10.691745 0 0 1 -0.08719,-0.0274 6.6895744,10.691745 0 0 1 -0.08676,-0.029 6.6895744,10.691745 0 0 1 -0.08676,-0.0308 6.6895744,10.691745 0 0 1 -0.08633,-0.0326 6.6895744,10.691745 0 0 1 -0.08589,-0.0342 6.6895744,10.691745 0 0 1 -0.08589,-0.0364 6.6895744,10.691745 0 0 1 -0.08546,-0.0382 6.6895744,10.691745 0 0 1 -0.08546,-0.0399 6.6895744,10.691745 0 0 1 -0.08459,-0.0416 6.6895744,10.691745 0 0 1 -0.08459,-0.0438 6.6895744,10.691745 0 0 1 -0.08416,-0.0451 6.6895744,10.691745 0 0 1 -0.08373,-0.0473 6.6895744,10.691745 0 0 1 -0.08329,-0.0486 6.6895744,10.691745 0 0 1 -0.08285,-0.0508 6.6895744,10.691745 0 0 1 -0.08243,-0.0525 6.6895744,10.691745 0 0 1 -0.08199,-0.0542 6.6895744,10.691745 0 0 1 -0.08199,-0.0555 6.6895744,10.691745 0 0 1 -0.08112,-0.0577 6.6895744,10.691745 0 0 1 -0.08069,-0.0594 6.6895744,10.691745 0 0 1 -0.07982,-0.0612 6.6895744,10.691745 0 0 1 -0.07982,-0.0625 6.6895744,10.691745 0 0 1 -0.07895,-0.0646 6.6895744,10.691745 0 0 1 -0.07852,-0.0659 6.6895744,10.691745 0 0 1 -0.07809,-0.0677 6.6895744,10.691745 0 0 1 -0.07765,-0.0694 6.6895744,10.691745 0 0 1 -0.07678,-0.0711 6.6895744,10.691745 0 0 1 -0.07635,-0.0724 6.6895744,10.691745 0 0 1 -0.07548,-0.0742 6.6895744,10.691745 0 0 1 -0.07505,-0.0759 6.6895744,10.691745 0 0 1 -0.07418,-0.0776 6.6895744,10.691745 0 0 1 -0.07375,-0.079 6.6895744,10.691745 0 0 1 -0.07331,-0.0803 6.6895744,10.691745 0 0 1 -0.07244,-0.0824 6.6895744,10.691745 0 0 1 -0.07158,-0.0833 6.6895744,10.691745 0 0 1 -0.07114,-0.0855 6.6895744,10.691745 0 0 1 -0.07028,-0.0863 6.6895744,10.691745 0 0 1 -0.0694,-0.0885 6.6895744,10.691745 0 0 1 -0.06898,-0.0894 6.6895744,10.691745 0 0 1 -0.06811,-0.0911 6.6895744,10.691745 0 0 1 -0.06724,-0.0924 6.6895744,10.691745 0 0 1 -0.06637,-0.0941 6.6895744,10.691745 0 0 1 -0.06594,-0.095 6.6895744,10.691745 0 0 1 -0.06507,-0.0967 6.6895744,10.691745 0 0 1 -0.0642,-0.098 6.6895744,10.691745 0 0 1 -0.06334,-0.0993 6.6895744,10.691745 0 0 1 -0.06246,-0.10108 6.6895744,10.691745 0 0 1 -0.0616,-0.10194 6.6895744,10.691745 0 0 1 -0.06073,-0.10324 6.6895744,10.691745 0 0 1 -0.05986,-0.10499 6.6895744,10.691745 0 0 1 -0.05943,-0.10584 6.6895744,10.691745 0 0 1 -0.05813,-0.10715 6.6895744,10.691745 0 0 1 -0.05726,-0.10801 6.6895744,10.691745 0 0 1 -0.05639,-0.10975 6.6895744,10.691745 0 0 1 -0.05553,-0.11063 6.6895744,10.691745 0 0 1 -0.05422,-0.11191 6.6895744,10.691745 0 0 1 -0.05379,-0.11323 6.6895744,10.691745 0 0 1 -0.05249,-0.11409 6.6895744,10.691745 0 0 1 -0.05205,-0.11539 6.6895744,10.691745 0 0 1 -0.05075,-0.11669 6.6895744,10.691745 0 0 1 -0.04945,-0.11712 6.6895744,10.691745 0 0 1 -0.04902,-0.11887 6.6895744,10.691745 0 0 1 -0.04771,-0.11929 6.6895744,10.691745 0 0 1 -0.04685,-0.1206 6.6895744,10.691745 0 0 1 -0.04599,-0.12146 6.6895744,10.691745 0 0 1 -0.04468,-0.12233 6.6895744,10.691745 0 0 1 -0.04381,-0.12363 6.6895744,10.691745 0 0 1 -0.04295,-0.1245 6.6895744,10.691745 0 0 1 -0.04164,-0.12494 6.6895744,10.691745 0 0 1 -0.04034,-0.12623 6.6895744,10.691745 0 0 1 -0.03991,-0.12711 6.6895744,10.691745 0 0 1 -0.03861,-0.12753 6.6895744,10.691745 0 0 1 -0.03731,-0.12883 6.6895744,10.691745 0 0 1 -0.03644,-0.12928 6.6895744,10.691745 0 0 1 -0.03558,-0.13014 6.6895744,10.691745 0 0 1 -0.03427,-0.13101 6.6895744,10.691745 0 0 1 -0.03297,-0.13144 6.6895744,10.691745 0 0 1 -0.0321,-0.1323 6.6895744,10.691745 0 0 1 -0.03124,-0.13318 6.6895744,10.691745 0 0 1 -0.0295,-0.13362 6.6895744,10.691745 0 0 1 -0.02906,-0.13403 6.6895744,10.691745 0 0 1 -0.02733,-0.13492 6.6895744,10.691745 0 0 1 -0.0269,-0.13534 6.6895744,10.691745 0 0 1 -0.02516,-0.13578 6.6895744,10.691745 0 0 1 -0.02429,-0.13665 6.6895744,10.691745 0 0 1 -0.02299,-0.13707 6.6895744,10.691745 0 0 1 -0.02212,-0.13752 6.6895744,10.691745 0 0 1 -0.02083,-0.13751 6.6895744,10.691745 0 0 1 -0.01995,-0.13839 6.6895744,10.691745 0 0 1 -0.01822,-0.13882 6.6895744,10.691745 0 0 1 -0.01779,-0.13925 6.6895744,10.691745 0 0 1 -0.01605,-0.13968 6.6895744,10.691745 0 0 1 -0.01519,-0.13968 6.6895744,10.691745 0 0 1 -0.01388,-0.14012 6.6895744,10.691745 0 0 1 -0.01258,-0.14055 6.6895744,10.691745 0 0 1 -0.01171,-0.14055 6.6895744,10.691745 0 0 1 -0.01041,-0.14098 6.6895744,10.691745 0 0 1 -0.0091,-0.14099 6.6895744,10.691745 0 0 1 -0.0082,-0.14141 6.6895744,10.691745 0 0 1 -0.007,-0.14142 6.6895744,10.691745 0 0 1 -0.0056,-0.14142 6.6895744,10.691745 0 0 1 -0.0048,-0.14186 6.6895744,10.691745 0 0 1 -0.003,-0.14185 6.6895744,10.691745 0 0 1 -0.0022,-0.14185 6.6895744,10.691745 0 0 1 -0.0013,-0.14185 6.6895744,10.691745 0 0 1 0,-0.052 6.6895744,10.691745 0 0 1 4.33e-4,-0.14185 6.6895744,10.691745 0 0 1 0.0018,-0.14185 6.6895744,10.691745 0 0 1 0.003,-0.14186 6.6895744,10.691745 0 0 1 0.0044,-0.14185 6.6895744,10.691745 0 0 1 0.0052,-0.14141 6.6895744,10.691745 0 0 1 0.0065,-0.14142 6.6895744,10.691745 0 0 1 0.0074,-0.14142 6.6895744,10.691745 0 0 1 0.0091,-0.14142 6.6895744,10.691745 0 0 1 0.01,-0.14098 6.6895744,10.691745 0 0 1 0.01128,-0.14055 6.6895744,10.691745 0 0 1 0.01215,-0.14055 6.6895744,10.691745 0 0 1 0.01345,-0.14012 6.6895744,10.691745 0 0 1 0.01475,-0.14012 6.6895744,10.691745 0 0 1 0.01561,-0.13968 6.6895744,10.691745 0 0 1 0.01691,-0.13925 6.6895744,10.691745 0 0 1 0.01822,-0.13881 6.6895744,10.691745 0 0 1 0.01952,-0.13838 6.6895744,10.691745 0 0 1 0.02039,-0.13795 6.6895744,10.691745 0 0 1 0.02169,-0.13795 6.6895744,10.691745 0 0 1 0.02256,-0.13708 6.6895744,10.691745 0 0 1 0.02386,-0.13665 6.6895744,10.691745 0 0 1 0.02516,-0.13622 6.6895744,10.691745 0 0 1 0.02603,-0.13534 6.6895744,10.691745 0 0 1 0.02733,-0.13534 6.6895744,10.691745 0 0 1 0.0282,-0.13448 6.6895744,10.691745 0 0 1 0.0295,-0.13361 6.6895744,10.691745 0 0 1 0.03036,-0.13317 6.6895744,10.691745 0 0 1 0.03166,-0.13274 6.6895744,10.691745 0 0 1 0.03297,-0.13188 6.6895744,10.691745 0 0 1 0.03384,-0.13101 6.6895744,10.691745 0 0 1 0.03514,-0.13057 6.6895744,10.691745 0 0 1 0.036,-0.12971 6.6895744,10.691745 0 0 1 0.03688,-0.12884 6.6895744,10.691745 0 0 1 0.03817,-0.12797 6.6895744,10.691745 0 0 1 0.03948,-0.1271 6.6895744,10.691745 0 0 1 0.04034,-0.12667 6.6895744,10.691745 0 0 1 0.04121,-0.12537 6.6895744,10.691745 0 0 1 0.04251,-0.12493 6.6895744,10.691745 0 0 1 0.04338,-0.12363 6.6895744,10.691745 0 0 1 0.04425,-0.12277 6.6895744,10.691745 0 0 1 0.04555,-0.1219 6.6895744,10.691745 0 0 1 0.04642,-0.12103 6.6895744,10.691745 0 0 1 0.04729,-0.11972 6.6895744,10.691745 0 0 1 0.04859,-0.11887 6.6895744,10.691745 0 0 1 0.04945,-0.11799 6.6895744,10.691745 0 0 1 0.05032,-0.11669 6.6895744,10.691745 0 0 1 0.05119,-0.11582 6.6895744,10.691745 0 0 1 0.04945,-0.10845 z"
       inkscape:connector-curvature="0" />
    <path
       id="path29"
       style="fill:#ffffff;stroke-width:2.24493;stroke-linecap:round"
       d="m 44.865894,135.2101 a 6.6895744,10.691745 0 0 0 -0.04945,0.10845 6.6895744,10.691745 0 0 0 -0.05119,0.11582 6.6895744,10.691745 0 0 0 -0.05032,0.11669 6.6895744,10.691745 0 0 0 -0.04945,0.11799 6.6895744,10.691745 0 0 0 -0.04859,0.11887 6.6895744,10.691745 0 0 0 -0.04729,0.11972 6.6895744,10.691745 0 0 0 -0.04642,0.12103 6.6895744,10.691745 0 0 0 -0.04555,0.1219 6.6895744,10.691745 0 0 0 -0.04425,0.12277 6.6895744,10.691745 0 0 0 -0.04338,0.12363 6.6895744,10.691745 0 0 0 -0.04251,0.12493 6.6895744,10.691745 0 0 0 -0.04121,0.12537 6.6895744,10.691745 0 0 0 -0.04034,0.12667 6.6895744,10.691745 0 0 0 -0.03948,0.12711 6.6895744,10.691745 0 0 0 -0.03817,0.12796 6.6895744,10.691745 0 0 0 -0.03688,0.12884 6.6895744,10.691745 0 0 0 -0.036,0.1297 6.6895744,10.691745 0 0 0 -0.03514,0.13058 6.6895744,10.691745 0 0 0 -0.03384,0.13101 6.6895744,10.691745 0 0 0 -0.03297,0.13187 6.6895744,10.691745 0 0 0 -0.03166,0.13275 6.6895744,10.691745 0 0 0 -0.03036,0.13317 6.6895744,10.691745 0 0 0 -0.0295,0.13361 6.6895744,10.691745 0 0 0 -0.0282,0.13447 6.6895744,10.691745 0 0 0 -0.02733,0.13536 6.6895744,10.691745 0 0 0 -0.02603,0.13533 6.6895744,10.691745 0 0 0 -0.02516,0.13622 6.6895744,10.691745 0 0 0 -0.02386,0.13665 6.6895744,10.691745 0 0 0 -0.02256,0.13708 6.6895744,10.691745 0 0 0 -0.02169,0.13795 6.6895744,10.691745 0 0 0 -0.02039,0.13794 6.6895744,10.691745 0 0 0 -0.01952,0.13839 6.6895744,10.691745 0 0 0 -0.01822,0.13881 6.6895744,10.691745 0 0 0 -0.01691,0.13926 6.6895744,10.691745 0 0 0 -0.01561,0.13967 6.6895744,10.691745 0 0 0 -0.01475,0.14012 6.6895744,10.691745 0 0 0 -0.01345,0.14012 6.6895744,10.691745 0 0 0 -0.01215,0.14055 6.6895744,10.691745 0 0 0 -0.01128,0.14054 6.6895744,10.691745 0 0 0 -0.01,0.14099 6.6895744,10.691745 0 0 0 -0.0091,0.14142 6.6895744,10.691745 0 0 0 -0.0074,0.14142 6.6895744,10.691745 0 0 0 -0.0065,0.14142 6.6895744,10.691745 0 0 0 -0.0052,0.14142 6.6895744,10.691745 0 0 0 -0.0044,0.14185 6.6895744,10.691745 0 0 0 -0.003,0.14185 6.6895744,10.691745 0 0 0 -0.0018,0.14185 6.6895744,10.691745 0 0 0 -4.33e-4,0.14185 6.6895744,10.691745 0 0 0 0,0.0521 6.6895744,10.691745 0 0 0 0.0013,0.14185 6.6895744,10.691745 0 0 0 0.0022,0.14185 6.6895744,10.691745 0 0 0 0.003,0.14186 6.6895744,10.691745 0 0 0 0.0048,0.14185 6.6895744,10.691745 0 0 0 0.0056,0.14141 6.6895744,10.691745 0 0 0 0.007,0.14143 6.6895744,10.691745 0 0 0 0.0082,0.14141 6.6895744,10.691745 0 0 0 0.0091,0.14099 6.6895744,10.691745 0 0 0 0.01041,0.14098 6.6895744,10.691745 0 0 0 0.01171,0.14055 6.6895744,10.691745 0 0 0 0.01258,0.14055 6.6895744,10.691745 0 0 0 0.01389,0.14012 6.6895744,10.691745 0 0 0 0.01518,0.13969 6.6895744,10.691745 0 0 0 0.01605,0.13968 6.6895744,10.691745 0 0 0 0.01779,0.13925 6.6895744,10.691745 0 0 0 0.01822,0.13881 6.6895744,10.691745 0 0 0 0.01995,0.13838 6.6895744,10.691745 0 0 0 0.02083,0.13752 6.6895744,10.691745 0 0 0 0.02212,0.13751 6.6895744,10.691745 0 0 0 0.02299,0.13709 6.6895744,10.691745 0 0 0 0.02429,0.13663 6.6895744,10.691745 0 0 0 0.02516,0.13579 6.6895744,10.691745 0 0 0 0.0269,0.13534 6.6895744,10.691745 0 0 0 0.02733,0.13492 6.6895744,10.691745 0 0 0 0.02906,0.13404 6.6895744,10.691745 0 0 0 0.0295,0.13361 6.6895744,10.691745 0 0 0 0.03124,0.13318 6.6895744,10.691745 0 0 0 0.0321,0.1323 6.6895744,10.691745 0 0 0 0.03296,0.13144 6.6895744,10.691745 0 0 0 0.03427,0.13101 6.6895744,10.691745 0 0 0 0.03558,0.13014 6.6895744,10.691745 0 0 0 0.03644,0.12927 6.6895744,10.691745 0 0 0 0.0373,0.12884 6.6895744,10.691745 0 0 0 0.03861,0.12753 6.6895744,10.691745 0 0 0 0.03991,0.12711 6.6895744,10.691745 0 0 0 0.04034,0.12624 6.6895744,10.691745 0 0 0 0.04164,0.12493 6.6895744,10.691745 0 0 0 0.04295,0.1245 6.6895744,10.691745 0 0 0 0.04381,0.12363 6.6895744,10.691745 0 0 0 0.04468,0.12233 6.6895744,10.691745 0 0 0 0.04599,0.12146 6.6895744,10.691745 0 0 0 0.04685,0.1206 6.6895744,10.691745 0 0 0 0.04771,0.1193 6.6895744,10.691745 0 0 0 0.04902,0.11886 6.6895744,10.691745 0 0 0 0.04945,0.11712 6.6895744,10.691745 0 0 0 0.05075,0.11669 6.6895744,10.691745 0 0 0 0.05205,0.11539 6.6895744,10.691745 0 0 0 0.05249,0.11409 6.6895744,10.691745 0 0 0 0.05379,0.11323 6.6895744,10.691745 0 0 0 0.05422,0.11191 6.6895744,10.691745 0 0 0 0.05553,0.11063 6.6895744,10.691745 0 0 0 0.05639,0.10975 6.6895744,10.691745 0 0 0 0.05726,0.10801 6.6895744,10.691745 0 0 0 0.05813,0.10715 6.6895744,10.691745 0 0 0 0.05943,0.10585 6.6895744,10.691745 0 0 0 0.05986,0.10497 6.6895744,10.691745 0 0 0 0.06073,0.10325 6.6895744,10.691745 0 0 0 0.0616,0.10194 6.6895744,10.691745 0 0 0 0.06246,0.10108 6.6895744,10.691745 0 0 0 0.06334,0.0993 6.6895744,10.691745 0 0 0 0.0642,0.098 6.6895744,10.691745 0 0 0 0.06507,0.0967 6.6895744,10.691745 0 0 0 0.06594,0.095 6.6895744,10.691745 0 0 0 0.06637,0.0941 6.6895744,10.691745 0 0 0 0.06724,0.0924 6.6895744,10.691745 0 0 0 0.0681,0.0911 6.6895744,10.691745 0 0 0 0.06898,0.0894 6.6895744,10.691745 0 0 0 0.06941,0.0885 6.6895744,10.691745 0 0 0 0.07028,0.0863 6.6895744,10.691745 0 0 0 0.07114,0.0855 6.6895744,10.691745 0 0 0 0.07158,0.0833 6.6895744,10.691745 0 0 0 0.07245,0.0824 6.6895744,10.691745 0 0 0 0.07331,0.0803 6.6895744,10.691745 0 0 0 0.07375,0.079 6.6895744,10.691745 0 0 0 0.07418,0.0777 6.6895744,10.691745 0 0 0 0.07505,0.0759 6.6895744,10.691745 0 0 0 0.07548,0.0742 6.6895744,10.691745 0 0 0 0.07635,0.0724 6.6895744,10.691745 0 0 0 0.07679,0.0712 6.6895744,10.691745 0 0 0 0.07765,0.0694 6.6895744,10.691745 0 0 0 0.07809,0.0677 6.6895744,10.691745 0 0 0 0.07852,0.066 6.6895744,10.691745 0 0 0 0.07895,0.0646 6.6895744,10.691745 0 0 0 0.07982,0.0624 6.6895744,10.691745 0 0 0 0.07982,0.0612 6.6895744,10.691745 0 0 0 0.08069,0.0594 6.6895744,10.691745 0 0 0 0.08112,0.0577 6.6895744,10.691745 0 0 0 0.08199,0.0555 6.6895744,10.691745 0 0 0 0.08199,0.0542 6.6895744,10.691745 0 0 0 0.08243,0.0525 6.6895744,10.691745 0 0 0 0.08285,0.0508 6.6895744,10.691745 0 0 0 0.08329,0.0486 6.6895744,10.691745 0 0 0 0.08373,0.0473 6.6895744,10.691745 0 0 0 0.08416,0.0451 6.6895744,10.691745 0 0 0 0.08459,0.0438 6.6895744,10.691745 0 0 0 0.08459,0.0416 6.6895744,10.691745 0 0 0 0.08546,0.0399 6.6895744,10.691745 0 0 0 0.08546,0.0382 6.6895744,10.691745 0 0 0 0.08589,0.0364 6.6895744,10.691745 0 0 0 0.08589,0.0343 6.6895744,10.691745 0 0 0 0.08633,0.0326 6.6895744,10.691745 0 0 0 0.08676,0.0308 6.6895744,10.691745 0 0 0 0.08676,0.029 6.6895744,10.691745 0 0 0 0.08719,0.0274 6.6895744,10.691745 0 0 0 0.08763,0.0252 6.6895744,10.691745 0 0 0 0.08763,0.0234 6.6895744,10.691745 0 0 0 0.08763,0.0217 6.6895744,10.691745 0 0 0 0.08763,0.0196 6.6895744,10.691745 0 0 0 0.08849,0.0178 6.6895744,10.691745 0 0 0 0.08806,0.016 6.6895744,10.691745 0 0 0 0.08806,0.0144 6.6895744,10.691745 0 0 0 0.08849,0.0122 6.6895744,10.691745 0 0 0 0.0885,0.0104 6.6895744,10.691745 0 0 0 0.08893,0.008 6.6895744,10.691745 0 0 0 0.08849,0.007 6.6895744,10.691745 0 0 0 0.08893,0.005 6.6895744,10.691745 0 0 0 0.0885,0.003 6.6895744,10.691745 0 0 0 0.08893,8.4e-4 6.6895744,10.691745 0 0 0 0.03254,0 6.6895744,10.691745 0 0 0 0.08893,-0.002 6.6895744,10.691745 0 0 0 0.08849,-0.003 6.6895744,10.691745 0 0 0 0.08893,-0.006 6.6895744,10.691745 0 0 0 0.08849,-0.007 6.6895744,10.691745 0 0 0 0.0885,-0.01 6.6895744,10.691745 0 0 0 0.0885,-0.0108 6.6895744,10.691745 0 0 0 0.08849,-0.013 6.6895744,10.691745 0 0 0 0.08849,-0.0148 6.6895744,10.691745 0 0 0 0.08806,-0.0165 6.6895744,10.691745 0 0 0 0.08806,-0.0186 6.6895744,10.691745 0 0 0 0.08763,-0.0204 6.6895744,10.691745 0 0 0 0.08806,-0.0222 6.6895744,10.691745 0 0 0 0.08719,-0.0243 6.6895744,10.691745 0 0 0 0.08719,-0.026 6.6895744,10.691745 0 0 0 0.08719,-0.0278 6.6895744,10.691745 0 0 0 0.08676,-0.0295 6.6895744,10.691745 0 0 0 0.08676,-0.0317 6.6895744,10.691745 0 0 0 0.08633,-0.0334 6.6895744,10.691745 0 0 0 0.08589,-0.0352 6.6895744,10.691745 0 0 0 0.08546,-0.0368 6.6895744,10.691745 0 0 0 0.08546,-0.0386 6.6895744,10.691745 0 0 0 0.08503,-0.0408 6.6895744,10.691745 0 0 0 0.08502,-0.0425 6.6895744,10.691745 0 0 0 0.08416,-0.0442 6.6895744,10.691745 0 0 0 0.08416,-0.046 6.6895744,10.691745 0 0 0 0.08329,-0.0477 6.6895744,10.691745 0 0 0 0.08329,-0.0494 6.6895744,10.691745 0 0 0 0.08285,-0.0512 6.6895744,10.691745 0 0 0 0.08242,-0.0529 6.6895744,10.691745 0 0 0 0.08199,-0.0551 6.6895744,10.691745 0 0 0 0.08113,-0.0564 6.6895744,10.691745 0 0 0 0.08112,-0.0582 6.6895744,10.691745 0 0 0 0.08025,-0.0599 6.6895744,10.691745 0 0 0 0.08025,-0.0616 6.6895744,10.691745 0 0 0 0.07939,-0.0633 6.6895744,10.691745 0 0 0 0.07895,-0.0651 6.6895744,10.691745 0 0 0 0.07809,-0.0668 6.6895744,10.691745 0 0 0 0.07809,-0.0681 6.6895744,10.691745 0 0 0 0.07721,-0.0703 6.6895744,10.691745 0 0 0 0.07635,-0.0716 6.6895744,10.691745 0 0 0 0.07635,-0.0733 6.6895744,10.691745 0 0 0 0.07548,-0.0746 6.6895744,10.691745 0 0 0 0.07462,-0.0763 6.6895744,10.691745 0 0 0 0.07421,-0.0781 6.6895744,10.691745 0 0 0 0.07328,-0.0798 6.6895744,10.691745 0 0 0 0.07286,-0.0811 6.6895744,10.691745 0 0 0 0.07244,-0.0824 6.6895744,10.691745 0 0 0 0.0711,-0.0841 6.6895744,10.691745 0 0 0 0.07068,-0.0859 6.6895744,10.691745 0 0 0 0.07026,-0.0872 6.6895744,10.691745 0 0 0 0.06942,-0.0885 6.6895744,10.691745 0 0 0 0.0685,-0.0902 6.6895744,10.691745 0 0 0 0.06766,-0.0915 6.6895744,10.691745 0 0 0 0.06682,-0.0928 6.6895744,10.691745 0 0 0 0.0664,-0.0946 6.6895744,10.691745 0 0 0 0.06548,-0.0959 6.6895744,10.691745 0 0 0 0.06464,-0.0972 6.6895744,10.691745 0 0 0 0.0638,-0.0985 6.6895744,10.691745 0 0 0 0.06329,-0.1002 6.6895744,10.691745 0 0 0 0.06204,-0.10108 6.6895744,10.691745 0 0 0 0.06162,-0.10237 6.6895744,10.691745 0 0 0 0.06027,-0.10411 6.6895744,10.691745 0 0 0 0.05943,-0.10498 6.6895744,10.691745 0 0 0 0.05901,-0.10628 6.6895744,10.691745 0 0 0 0.05767,-0.10759 6.6895744,10.691745 0 0 0 0.05725,-0.10888 6.6895744,10.691745 0 0 0 0.05599,-0.11018 6.6895744,10.691745 0 0 0 0.05507,-0.11105 6.6895744,10.691745 0 0 0 0.05423,-0.11236 6.6895744,10.691745 0 0 0 0.05339,-0.11366 6.6895744,10.691745 0 0 0 0.05205,-0.11451 6.6895744,10.691745 0 0 0 0.05163,-0.11583 6.6895744,10.691745 0 0 0 0.05028,-0.11669 6.6895744,10.691745 0 0 0 0.04944,-0.118 6.6895744,10.691745 0 0 0 0.0486,-0.11885 6.6895744,10.691745 0 0 0 0.04726,-0.11974 6.6895744,10.691745 0 0 0 0.04642,-0.12103 6.6895744,10.691745 0 0 0 0.04558,-0.12189 6.6895744,10.691745 0 0 0 0.04424,-0.12277 6.6895744,10.691745 0 0 0 0.0434,-0.12363 6.6895744,10.691745 0 0 0 0.04248,-0.12494 6.6895744,10.691745 0 0 0 0.04122,-0.12536 6.6895744,10.691745 0 0 0 0.04038,-0.12624 6.6895744,10.691745 0 0 0 0.03945,-0.12753 6.6895744,10.691745 0 0 0 0.03819,-0.12797 6.6895744,10.691745 0 0 0 0.03685,-0.12884 6.6895744,10.691745 0 0 0 0.03601,-0.12971 6.6895744,10.691745 0 0 0 0.03517,-0.13057 6.6895744,10.691745 0 0 0 0.02905,-0.11192 c -0.762027,-2.07869 -1.806139,-4.26802 -3.215319,-5.82114 -2.474612,-2.72741 -5.373793,-4.33665 -8.361032,-4.56487 z"
       inkscape:connector-curvature="0" />
    <path
       id="path32"
       style="fill:#00a0fc;stroke-width:2.24492;stroke-linecap:round"
       d="m 77.221493,136.14743 c -1.712664,0.77497 -3.347009,1.99673 -4.827744,3.62872 -1.408891,1.55281 -2.452892,3.74153 -3.214881,5.81984 -1.55e-4,4.5e-4 -2.11e-4,8.9e-4 -4.44e-4,0.001 -1.14515,3.12417 -1.635855,5.98859 -1.635855,5.98859 12.33134,1.10177 14.413058,2.72426 23.538774,-3.42918 0,0 -0.500648,-2.52539 -1.486627,-5.31143 a 6.6094685,10.694345 0 0 1 -0.01215,0.11799 6.6094685,10.694345 0 0 1 -0.01561,0.13969 6.6094685,10.694345 0 0 1 -0.01693,0.13968 6.6094685,10.694345 0 0 1 -0.01821,0.13881 6.6094685,10.694345 0 0 1 -0.01908,0.13882 6.6094685,10.694345 0 0 1 -0.01994,0.13838 6.6094685,10.694345 0 0 1 -0.0217,0.13795 6.6094685,10.694345 0 0 1 -0.02256,0.13751 6.6094685,10.694345 0 0 1 -0.02343,0.13665 6.6094685,10.694345 0 0 1 -0.02473,0.13665 6.6094685,10.694345 0 0 1 -0.02603,0.13578 6.6094685,10.694345 0 0 1 -0.02689,0.13534 6.6094685,10.694345 0 0 1 -0.0282,0.13448 6.6094685,10.694345 0 0 1 -0.02907,0.13404 6.6094685,10.694345 0 0 1 -0.03037,0.13361 6.6094685,10.694345 0 0 1 -0.03123,0.13275 6.6094685,10.694345 0 0 1 -0.03254,0.13187 6.6094685,10.694345 0 0 1 -0.03383,0.13144 6.6094685,10.694345 0 0 1 -0.0347,0.13057 6.6094685,10.694345 0 0 1 -0.03557,0.12971 6.6094685,10.694345 0 0 1 -0.03687,0.12927 6.6094685,10.694345 0 0 1 -0.03774,0.12841 6.6094685,10.694345 0 0 1 -0.03904,0.12753 6.6094685,10.694345 0 0 1 -0.03991,0.12624 6.6094685,10.694345 0 0 1 -0.04078,0.1258 6.6094685,10.694345 0 0 1 -0.04208,0.12493 6.6094685,10.694345 0 0 1 -0.04295,0.12407 6.6094685,10.694345 0 0 1 -0.04425,0.12277 6.6094685,10.694345 0 0 1 -0.04468,0.12233 6.6094685,10.694345 0 0 1 -0.04598,0.12103 6.6094685,10.694345 0 0 1 -0.04728,0.11972 6.6094685,10.694345 0 0 1 -0.04815,0.1193 6.6094685,10.694345 0 0 1 -0.04859,0.11799 6.6094685,10.694345 0 0 1 -0.05032,0.11669 6.6094685,10.694345 0 0 1 -0.05075,0.11583 6.6094685,10.694345 0 0 1 -0.05205,0.11496 6.6094685,10.694345 0 0 1 -0.05249,0.11365 6.6094685,10.694345 0 0 1 -0.05379,0.11235 6.6094685,10.694345 0 0 1 -0.05466,0.11149 6.6094685,10.694345 0 0 1 -0.05553,0.11018 6.6094685,10.694345 0 0 1 -0.0564,0.10889 6.6094685,10.694345 0 0 1 -0.05726,0.10758 6.6094685,10.694345 0 0 1 -0.05856,0.10628 6.6094685,10.694345 0 0 1 -0.059,0.10541 6.6094685,10.694345 0 0 1 -0.05986,0.10368 6.6094685,10.694345 0 0 1 -0.06073,0.10281 6.6094685,10.694345 0 0 1 -0.0616,0.10108 6.6094685,10.694345 0 0 1 -0.06247,0.1002 6.6094685,10.694345 0 0 1 -0.06333,0.0985 6.6094685,10.694345 0 0 1 -0.0642,0.0972 6.6094685,10.694345 0 0 1 -0.06464,0.0959 6.6094685,10.694345 0 0 1 -0.06594,0.0946 6.6094685,10.694345 0 0 1 -0.06637,0.0928 6.6094685,10.694345 0 0 1 -0.06724,0.092 6.6094685,10.694345 0 0 1 -0.06767,0.0898 6.6094685,10.694345 0 0 1 -0.06854,0.0889 6.6094685,10.694345 0 0 1 -0.06941,0.0872 6.6094685,10.694345 0 0 1 -0.07028,0.0855 6.6094685,10.694345 0 0 1 -0.07071,0.0842 6.6094685,10.694345 0 0 1 -0.07158,0.0828 6.6094685,10.694345 0 0 1 -0.07201,0.0811 6.6094685,10.694345 0 0 1 -0.07288,0.0794 6.6094685,10.694345 0 0 1 -0.07331,0.0781 6.6094685,10.694345 0 0 1 -0.07418,0.0763 6.6094685,10.694345 0 0 1 -0.07461,0.0746 6.6094685,10.694345 0 0 1 -0.07548,0.0733 6.6094685,10.694345 0 0 1 -0.07591,0.0716 6.6094685,10.694345 0 0 1 -0.07635,0.0698 6.6094685,10.694345 0 0 1 -0.07722,0.0681 6.6094685,10.694345 0 0 1 -0.07765,0.0668 6.6094685,10.694345 0 0 1 -0.07808,0.0651 6.6094685,10.694345 0 0 1 -0.07852,0.0629 6.6094685,10.694345 0 0 1 -0.07939,0.0616 6.6094685,10.694345 0 0 1 -0.07982,0.0599 6.6094685,10.694345 0 0 1 -0.08025,0.0581 6.6094685,10.694345 0 0 1 -0.08025,0.0564 6.6094685,10.694345 0 0 1 -0.08112,0.0547 6.6094685,10.694345 0 0 1 -0.08155,0.0529 6.6094685,10.694345 0 0 1 -0.08199,0.0512 6.6094685,10.694345 0 0 1 -0.08242,0.049 6.6094685,10.694345 0 0 1 -0.08286,0.0477 6.6094685,10.694345 0 0 1 -0.08329,0.046 6.6094685,10.694345 0 0 1 -0.08329,0.0438 6.6094685,10.694345 0 0 1 -0.08416,0.0421 6.6094685,10.694345 0 0 1 -0.08416,0.0404 6.6094685,10.694345 0 0 1 -0.08459,0.0386 6.6094685,10.694345 0 0 1 -0.08459,0.0369 6.6094685,10.694345 0 0 1 -0.08546,0.0351 6.6094685,10.694345 0 0 1 -0.08546,0.033 6.6094685,10.694345 0 0 1 -0.08546,0.0312 6.6094685,10.694345 0 0 1 -0.08589,0.0295 6.6094685,10.694345 0 0 1 -0.08633,0.0273 6.6094685,10.694345 0 0 1 -0.08633,0.026 6.6094685,10.694345 0 0 1 -0.08676,0.0239 6.6094685,10.694345 0 0 1 -0.08676,0.0217 6.6094685,10.694345 0 0 1 -0.08676,0.0204 6.6094685,10.694345 0 0 1 -0.08719,0.0182 6.6094685,10.694345 0 0 1 -0.08719,0.0161 6.6094685,10.694345 0 0 1 -0.08763,0.0147 6.6094685,10.694345 0 0 1 -0.08763,0.0126 6.6094685,10.694345 0 0 1 -0.08763,0.0104 6.6094685,10.694345 0 0 1 -0.08763,0.009 6.6094685,10.694345 0 0 1 -0.08763,0.007 6.6094685,10.694345 0 0 1 -0.08763,0.005 6.6094685,10.694345 0 0 1 -0.08806,0.003 6.6094685,10.694345 0 0 1 -0.08763,0.001 6.6094685,10.694345 0 0 1 -0.01606,0 6.6094685,10.694345 0 0 1 -0.08763,-8.9e-4 6.6094685,10.694345 0 0 1 -0.08806,-0.003 6.6094685,10.694345 0 0 1 -0.08763,-0.005 6.6094685,10.694345 0 0 1 -0.08763,-0.007 6.6094685,10.694345 0 0 1 -0.08763,-0.009 6.6094685,10.694345 0 0 1 -0.08763,-0.01 6.6094685,10.694345 0 0 1 -0.08763,-0.0126 6.6094685,10.694345 0 0 1 -0.08763,-0.0139 6.6094685,10.694345 0 0 1 -0.08719,-0.0161 6.6094685,10.694345 0 0 1 -0.08719,-0.0182 6.6094685,10.694345 0 0 1 -0.08676,-0.0195 6.6094685,10.694345 0 0 1 -0.08719,-0.0217 6.6094685,10.694345 0 0 1 -0.08633,-0.0234 6.6094685,10.694345 0 0 1 -0.08676,-0.0256 6.6094685,10.694345 0 0 1 -0.08589,-0.0269 6.6094685,10.694345 0 0 1 -0.08632,-0.0295 6.6094685,10.694345 0 0 1 -0.08546,-0.0308 6.6094685,10.694345 0 0 1 -0.08546,-0.0325 6.6094685,10.694345 0 0 1 -0.08546,-0.0347 6.6094685,10.694345 0 0 1 -0.08459,-0.0364 6.6094685,10.694345 0 0 1 -0.08459,-0.0382 6.6094685,10.694345 0 0 1 -0.08459,-0.0403 6.6094685,10.694345 0 0 1 -0.08372,-0.0416 6.6094685,10.694345 0 0 1 -0.08372,-0.0438 6.6094685,10.694345 0 0 1 -0.08329,-0.0455 6.6094685,10.694345 0 0 1 -0.08286,-0.0473 6.6094685,10.694345 0 0 1 -0.08242,-0.049 6.6094685,10.694345 0 0 1 -0.08199,-0.0508 6.6094685,10.694345 0 0 1 -0.08155,-0.0525 6.6094685,10.694345 0 0 1 -0.08112,-0.0542 6.6094685,10.694345 0 0 1 -0.08069,-0.056 6.6094685,10.694345 0 0 1 -0.08025,-0.0581 6.6094685,10.694345 0 0 1 -0.07982,-0.0594 6.6094685,10.694345 0 0 1 -0.07938,-0.0612 6.6094685,10.694345 0 0 1 -0.07895,-0.0629 6.6094685,10.694345 0 0 1 -0.07808,-0.0646 6.6094685,10.694345 0 0 1 -0.07765,-0.0664 6.6094685,10.694345 0 0 1 -0.07722,-0.0677 6.6094685,10.694345 0 0 1 -0.07678,-0.0698 6.6094685,10.694345 0 0 1 -0.07592,-0.0711 6.6094685,10.694345 0 0 1 -0.07548,-0.0729 6.6094685,10.694345 0 0 1 -0.07461,-0.0746 6.6094685,10.694345 0 0 1 -0.07418,-0.0759 6.6094685,10.694345 0 0 1 -0.07375,-0.0777 6.6094685,10.694345 0 0 1 -0.07288,-0.0794 6.6094685,10.694345 0 0 1 -0.07244,-0.0807 6.6094685,10.694345 0 0 1 -0.07158,-0.0824 6.6094685,10.694345 0 0 1 -0.07071,-0.0841 6.6094685,10.694345 0 0 1 -0.07027,-0.085 6.6094685,10.694345 0 0 1 -0.06941,-0.0872 6.6094685,10.694345 0 0 1 -0.06897,-0.0885 6.6094685,10.694345 0 0 1 -0.06811,-0.0898 6.6094685,10.694345 0 0 1 -0.06724,-0.0911 6.6094685,10.694345 0 0 1 -0.06637,-0.0928 6.6094685,10.694345 0 0 1 -0.06594,-0.0941 6.6094685,10.694345 0 0 1 -0.06507,-0.0959 6.6094685,10.694345 0 0 1 -0.0642,-0.0967 6.6094685,10.694345 0 0 1 -0.06333,-0.0985 6.6094685,10.694345 0 0 1 -0.06247,-0.0998 6.6094685,10.694345 0 0 1 -0.06203,-0.10108 6.6094685,10.694345 0 0 1 -0.06073,-0.10237 6.6094685,10.694345 0 0 1 -0.0603,-0.10368 6.6094685,10.694345 0 0 1 -0.059,-0.10498 6.6094685,10.694345 0 0 1 -0.05856,-0.10628 6.6094685,10.694345 0 0 1 -0.0577,-0.10758 6.6094685,10.694345 0 0 1 -0.05639,-0.10845 6.6094685,10.694345 0 0 1 -0.05553,-0.10975 6.6094685,10.694345 0 0 1 -0.05509,-0.11149 6.6094685,10.694345 0 0 1 -0.05379,-0.11192 6.6094685,10.694345 0 0 1 -0.05292,-0.11365 6.6094685,10.694345 0 0 1 -0.05205,-0.11452 6.6094685,10.694345 0 0 1 -0.05119,-0.11539 6.6094685,10.694345 0 0 1 -0.04989,-0.11713 6.6094685,10.694345 0 0 1 -0.04945,-0.11756 6.6094685,10.694345 0 0 1 -0.04815,-0.11886 6.6094685,10.694345 0 0 1 -0.04728,-0.11973 6.6094685,10.694345 0 0 1 -0.04598,-0.12103 6.6094685,10.694345 0 0 1 -0.04511,-0.1219 6.6094685,10.694345 0 0 1 -0.04425,-0.12276 6.6094685,10.694345 0 0 1 -0.04338,-0.12407 6.6094685,10.694345 0 0 1 -0.04208,-0.1245 6.6094685,10.694345 0 0 1 -0.04121,-0.12537 6.6094685,10.694345 0 0 1 -0.03991,-0.12666 6.6094685,10.694345 0 0 1 -0.03904,-0.12711 6.6094685,10.694345 0 0 1 -0.03817,-0.1284 6.6094685,10.694345 0 0 1 -0.03687,-0.12884 6.6094685,10.694345 0 0 1 -0.03601,-0.12971 6.6094685,10.694345 0 0 1 -0.0347,-0.13057 6.6094685,10.694345 0 0 1 -0.03384,-0.13101 6.6094685,10.694345 0 0 1 -0.03297,-0.1323 6.6094685,10.694345 0 0 1 -0.03123,-0.13231 6.6094685,10.694345 0 0 1 -0.0308,-0.13361 6.6094685,10.694345 0 0 1 -0.0295,-0.13361 6.6094685,10.694345 0 0 1 -0.0282,-0.13491 6.6094685,10.694345 0 0 1 -0.02689,-0.13492 6.6094685,10.694345 0 0 1 -0.02646,-0.13577 6.6094685,10.694345 0 0 1 -0.02473,-0.13622 6.6094685,10.694345 0 0 1 -0.02386,-0.13708 6.6094685,10.694345 0 0 1 -0.02256,-0.13708 6.6094685,10.694345 0 0 1 -0.0217,-0.13795 6.6094685,10.694345 0 0 1 -0.02039,-0.13795 6.6094685,10.694345 0 0 1 -0.01952,-0.13881 6.6094685,10.694345 0 0 1 -0.01821,-0.13925 6.6094685,10.694345 0 0 1 -0.01692,-0.13925 6.6094685,10.694345 0 0 1 -0.01606,-0.13968 6.6094685,10.694345 0 0 1 -0.01475,-0.14012 6.6094685,10.694345 0 0 1 -0.01346,-0.14055 6.6094685,10.694345 0 0 1 -0.01257,-0.14098 6.6094685,10.694345 0 0 1 -0.01128,-0.14055 6.6094685,10.694345 0 0 1 -0.01,-0.14142 6.6094685,10.694345 0 0 1 -0.0091,-0.14142 6.6094685,10.694345 0 0 1 -0.0078,-0.14142 6.6094685,10.694345 0 0 1 -0.0065,-0.14185 6.6094685,10.694345 0 0 1 -0.0052,-0.14185 6.6094685,10.694345 0 0 1 -0.0043,-0.14186 6.6094685,10.694345 0 0 1 -0.0035,-0.14228 6.6094685,10.694345 0 0 1 -0.0018,-0.14185 6.6094685,10.694345 0 0 1 -8.88e-4,-0.14229 6.6094685,10.694345 0 0 1 0,-0.0256 6.6094685,10.694345 0 0 1 4.44e-4,-0.14229 6.6094685,10.694345 0 0 1 0.0018,-0.14185 6.6094685,10.694345 0 0 1 0.003,-0.14229 6.6094685,10.694345 0 0 1 0.0043,-0.14185 6.6094685,10.694345 0 0 1 0.0052,-0.14185 6.6094685,10.694345 0 0 1 0.0065,-0.14186 6.6094685,10.694345 0 0 1 0.0074,-0.14141 6.6094685,10.694345 0 0 1 0.0087,-0.14142 6.6094685,10.694345 0 0 1 0.01,-0.14142 6.6094685,10.694345 0 0 1 0.01084,-0.14098 6.6094685,10.694345 0 0 1 0.01257,-0.14099 6.6094685,10.694345 0 0 1 0.01302,-0.14011 6.6094685,10.694345 0 0 1 0.01475,-0.14056 6.6094685,10.694345 0 0 1 0.01561,-0.13968 6.6094685,10.694345 0 0 1 0.01692,-0.13968 6.6094685,10.694345 0 0 1 0.01779,-0.13882 6.6094685,10.694345 0 0 1 0.01908,-0.13881 6.6094685,10.694345 0 0 1 0.02039,-0.13838 6.6094685,10.694345 0 0 1 0.02125,-0.13795 6.6094685,10.694345 0 0 1 0.02256,-0.13752 6.6094685,10.694345 0 0 1 0.02386,-0.13664 6.6094685,10.694345 0 0 1 0.02473,-0.13622 6.6094685,10.694345 0 0 1 0.02603,-0.13621 6.6094685,10.694345 0 0 1 0.02689,-0.13491 6.6094685,10.694345 0 0 1 0.0282,-0.13491 6.6094685,10.694345 0 0 1 0.02907,-0.13405 6.6094685,10.694345 0 0 1 0.03037,-0.13317 6.6094685,10.694345 0 0 1 0.03123,-0.13274 6.6094685,10.694345 0 0 1 0.03253,-0.13231 6.6094685,10.694345 0 0 1 0.0334,-0.13144 6.6094685,10.694345 0 0 1 0.0347,-0.13058 6.6094685,10.694345 0 0 1 0.03601,-0.1297 6.6094685,10.694345 0 0 1 0.03644,-0.12928 6.6094685,10.694345 0 0 1 0.03818,-0.1284 6.6094685,10.694345 0 0 1 0.03861,-0.1271 6.6094685,10.694345 0 0 1 0.03991,-0.12667 6.6094685,10.694345 0 0 1 0.01735,-0.0529 z"
       inkscape:connector-curvature="0" />
    <path
       id="path958"
       style="fill:#ffffff;fill-opacity:1;stroke-width:2.24492;stroke-linecap:round"
       d="m 77.221493,136.14743 a 6.6094685,10.694345 0 0 0 -0.01735,0.0529 6.6094685,10.694345 0 0 0 -0.03991,0.12667 6.6094685,10.694345 0 0 0 -0.03861,0.12711 6.6094685,10.694345 0 0 0 -0.03817,0.1284 6.6094685,10.694345 0 0 0 -0.03644,0.12927 6.6094685,10.694345 0 0 0 -0.03601,0.12971 6.6094685,10.694345 0 0 0 -0.0347,0.13057 6.6094685,10.694345 0 0 0 -0.0334,0.13144 6.6094685,10.694345 0 0 0 -0.03253,0.13231 6.6094685,10.694345 0 0 0 -0.03123,0.13274 6.6094685,10.694345 0 0 0 -0.03037,0.13318 6.6094685,10.694345 0 0 0 -0.02906,0.13404 6.6094685,10.694345 0 0 0 -0.0282,0.13491 6.6094685,10.694345 0 0 0 -0.02689,0.13491 6.6094685,10.694345 0 0 0 -0.02603,0.13622 6.6094685,10.694345 0 0 0 -0.02473,0.13621 6.6094685,10.694345 0 0 0 -0.02386,0.13665 6.6094685,10.694345 0 0 0 -0.02256,0.13751 6.6094685,10.694345 0 0 0 -0.02126,0.13795 6.6094685,10.694345 0 0 0 -0.02039,0.13838 6.6094685,10.694345 0 0 0 -0.01908,0.13882 6.6094685,10.694345 0 0 0 -0.01779,0.13881 6.6094685,10.694345 0 0 0 -0.01693,0.13969 6.6094685,10.694345 0 0 0 -0.01561,0.13968 6.6094685,10.694345 0 0 0 -0.01475,0.14055 6.6094685,10.694345 0 0 0 -0.01302,0.14012 6.6094685,10.694345 0 0 0 -0.01257,0.14098 6.6094685,10.694345 0 0 0 -0.01084,0.14099 6.6094685,10.694345 0 0 0 -0.01,0.14141 6.6094685,10.694345 0 0 0 -0.0087,0.14142 6.6094685,10.694345 0 0 0 -0.0074,0.14142 6.6094685,10.694345 0 0 0 -0.0065,0.14185 6.6094685,10.694345 0 0 0 -0.0052,0.14185 6.6094685,10.694345 0 0 0 -0.0043,0.14186 6.6094685,10.694345 0 0 0 -0.003,0.14228 6.6094685,10.694345 0 0 0 -0.0018,0.14185 6.6094685,10.694345 0 0 0 -4.44e-4,0.14229 6.6094685,10.694345 0 0 0 0,0.0256 6.6094685,10.694345 0 0 0 8.88e-4,0.14228 6.6094685,10.694345 0 0 0 0.0018,0.14185 6.6094685,10.694345 0 0 0 0.0035,0.14229 6.6094685,10.694345 0 0 0 0.0043,0.14185 6.6094685,10.694345 0 0 0 0.0052,0.14185 6.6094685,10.694345 0 0 0 0.0065,0.14185 6.6094685,10.694345 0 0 0 0.0078,0.14142 6.6094685,10.694345 0 0 0 0.0091,0.14142 6.6094685,10.694345 0 0 0 0.01,0.14142 6.6094685,10.694345 0 0 0 0.01128,0.14055 6.6094685,10.694345 0 0 0 0.01257,0.14099 6.6094685,10.694345 0 0 0 0.01346,0.14055 6.6094685,10.694345 0 0 0 0.01475,0.14011 6.6094685,10.694345 0 0 0 0.01606,0.13969 6.6094685,10.694345 0 0 0 0.01693,0.13924 6.6094685,10.694345 0 0 0 0.01821,0.13925 6.6094685,10.694345 0 0 0 0.01952,0.13882 6.6094685,10.694345 0 0 0 0.02039,0.13795 6.6094685,10.694345 0 0 0 0.0217,0.13795 6.6094685,10.694345 0 0 0 0.02256,0.13708 6.6094685,10.694345 0 0 0 0.02386,0.13707 6.6094685,10.694345 0 0 0 0.02473,0.13622 6.6094685,10.694345 0 0 0 0.02646,0.13578 6.6094685,10.694345 0 0 0 0.02689,0.13491 6.6094685,10.694345 0 0 0 0.0282,0.13491 6.6094685,10.694345 0 0 0 0.0295,0.13361 6.6094685,10.694345 0 0 0 0.0308,0.13361 6.6094685,10.694345 0 0 0 0.03123,0.13231 6.6094685,10.694345 0 0 0 0.03297,0.13231 6.6094685,10.694345 0 0 0 0.03384,0.131 6.6094685,10.694345 0 0 0 0.0347,0.13058 6.6094685,10.694345 0 0 0 0.03601,0.1297 6.6094685,10.694345 0 0 0 0.03687,0.12884 6.6094685,10.694345 0 0 0 0.03818,0.12841 6.6094685,10.694345 0 0 0 0.03904,0.1271 6.6094685,10.694345 0 0 0 0.03991,0.12667 6.6094685,10.694345 0 0 0 0.04121,0.12537 6.6094685,10.694345 0 0 0 0.04208,0.1245 6.6094685,10.694345 0 0 0 0.04338,0.12406 6.6094685,10.694345 0 0 0 0.04425,0.12277 6.6094685,10.694345 0 0 0 0.04511,0.12189 6.6094685,10.694345 0 0 0 0.04598,0.12104 6.6094685,10.694345 0 0 0 0.04728,0.11972 6.6094685,10.694345 0 0 0 0.04815,0.11886 6.6094685,10.694345 0 0 0 0.04945,0.11756 6.6094685,10.694345 0 0 0 0.04989,0.11713 6.6094685,10.694345 0 0 0 0.05119,0.11539 6.6094685,10.694345 0 0 0 0.05205,0.11452 6.6094685,10.694345 0 0 0 0.05292,0.11366 6.6094685,10.694345 0 0 0 0.05379,0.11192 6.6094685,10.694345 0 0 0 0.05509,0.11148 6.6094685,10.694345 0 0 0 0.05553,0.10975 6.6094685,10.694345 0 0 0 0.05639,0.10845 6.6094685,10.694345 0 0 0 0.0577,0.10759 6.6094685,10.694345 0 0 0 0.05856,0.10628 6.6094685,10.694345 0 0 0 0.059,0.10498 6.6094685,10.694345 0 0 0 0.0603,0.10367 6.6094685,10.694345 0 0 0 0.06073,0.10238 6.6094685,10.694345 0 0 0 0.06203,0.10107 6.6094685,10.694345 0 0 0 0.06247,0.0998 6.6094685,10.694345 0 0 0 0.06334,0.0985 6.6094685,10.694345 0 0 0 0.0642,0.0967 6.6094685,10.694345 0 0 0 0.06507,0.0959 6.6094685,10.694345 0 0 0 0.06594,0.0941 6.6094685,10.694345 0 0 0 0.06637,0.0928 6.6094685,10.694345 0 0 0 0.06724,0.0911 6.6094685,10.694345 0 0 0 0.06811,0.0898 6.6094685,10.694345 0 0 0 0.06898,0.0885 6.6094685,10.694345 0 0 0 0.06941,0.0872 6.6094685,10.694345 0 0 0 0.07027,0.085 6.6094685,10.694345 0 0 0 0.07071,0.0842 6.6094685,10.694345 0 0 0 0.07158,0.0824 6.6094685,10.694345 0 0 0 0.07244,0.0807 6.6094685,10.694345 0 0 0 0.07288,0.0794 6.6094685,10.694345 0 0 0 0.07375,0.0777 6.6094685,10.694345 0 0 0 0.07418,0.0759 6.6094685,10.694345 0 0 0 0.07461,0.0746 6.6094685,10.694345 0 0 0 0.07548,0.0729 6.6094685,10.694345 0 0 0 0.07591,0.0711 6.6094685,10.694345 0 0 0 0.07678,0.0698 6.6094685,10.694345 0 0 0 0.07722,0.0677 6.6094685,10.694345 0 0 0 0.07765,0.0664 6.6094685,10.694345 0 0 0 0.07808,0.0646 6.6094685,10.694345 0 0 0 0.07895,0.0629 6.6094685,10.694345 0 0 0 0.07938,0.0612 6.6094685,10.694345 0 0 0 0.07982,0.0594 6.6094685,10.694345 0 0 0 0.08025,0.0581 6.6094685,10.694345 0 0 0 0.08069,0.056 6.6094685,10.694345 0 0 0 0.08112,0.0542 6.6094685,10.694345 0 0 0 0.08155,0.0525 6.6094685,10.694345 0 0 0 0.08199,0.0508 6.6094685,10.694345 0 0 0 0.08242,0.049 6.6094685,10.694345 0 0 0 0.08286,0.0473 6.6094685,10.694345 0 0 0 0.08329,0.0455 6.6094685,10.694345 0 0 0 0.08372,0.0438 6.6094685,10.694345 0 0 0 0.08372,0.0417 6.6094685,10.694345 0 0 0 0.08459,0.0403 6.6094685,10.694345 0 0 0 0.08459,0.0382 6.6094685,10.694345 0 0 0 0.08459,0.0364 6.6094685,10.694345 0 0 0 0.08546,0.0347 6.6094685,10.694345 0 0 0 0.08546,0.0325 6.6094685,10.694345 0 0 0 0.08546,0.0308 6.6094685,10.694345 0 0 0 0.08633,0.0295 6.6094685,10.694345 0 0 0 0.08589,0.0269 6.6094685,10.694345 0 0 0 0.08676,0.0256 6.6094685,10.694345 0 0 0 0.08633,0.0234 6.6094685,10.694345 0 0 0 0.08719,0.0217 6.6094685,10.694345 0 0 0 0.08676,0.0195 6.6094685,10.694345 0 0 0 0.08719,0.0182 6.6094685,10.694345 0 0 0 0.08719,0.0161 6.6094685,10.694345 0 0 0 0.08763,0.0139 6.6094685,10.694345 0 0 0 0.08763,0.0126 6.6094685,10.694345 0 0 0 0.08763,0.01 6.6094685,10.694345 0 0 0 0.08763,0.009 6.6094685,10.694345 0 0 0 0.08763,0.007 6.6094685,10.694345 0 0 0 0.08763,0.005 6.6094685,10.694345 0 0 0 0.08806,0.003 6.6094685,10.694345 0 0 0 0.08763,8.9e-4 6.6094685,10.694345 0 0 0 0.01606,0 6.6094685,10.694345 0 0 0 0.08763,-0.001 6.6094685,10.694345 0 0 0 0.08806,-0.003 6.6094685,10.694345 0 0 0 0.08763,-0.005 6.6094685,10.694345 0 0 0 0.08763,-0.007 6.6094685,10.694345 0 0 0 0.08763,-0.009 6.6094685,10.694345 0 0 0 0.08763,-0.0104 6.6094685,10.694345 0 0 0 0.08763,-0.0126 6.6094685,10.694345 0 0 0 0.08763,-0.0147 6.6094685,10.694345 0 0 0 0.08719,-0.0161 6.6094685,10.694345 0 0 0 0.08719,-0.0182 6.6094685,10.694345 0 0 0 0.08676,-0.0204 6.6094685,10.694345 0 0 0 0.08676,-0.0217 6.6094685,10.694345 0 0 0 0.08676,-0.0239 6.6094685,10.694345 0 0 0 0.08633,-0.026 6.6094685,10.694345 0 0 0 0.08633,-0.0273 6.6094685,10.694345 0 0 0 0.08589,-0.0295 6.6094685,10.694345 0 0 0 0.08546,-0.0312 6.6094685,10.694345 0 0 0 0.08546,-0.033 6.6094685,10.694345 0 0 0 0.08546,-0.0351 6.6094685,10.694345 0 0 0 0.08459,-0.0369 6.6094685,10.694345 0 0 0 0.08459,-0.0386 6.6094685,10.694345 0 0 0 0.08416,-0.0403 6.6094685,10.694345 0 0 0 0.08416,-0.0421 6.6094685,10.694345 0 0 0 0.08329,-0.0438 6.6094685,10.694345 0 0 0 0.08329,-0.046 6.6094685,10.694345 0 0 0 0.08286,-0.0477 6.6094685,10.694345 0 0 0 0.08242,-0.049 6.6094685,10.694345 0 0 0 0.08199,-0.0512 6.6094685,10.694345 0 0 0 0.08155,-0.0529 6.6094685,10.694345 0 0 0 0.08112,-0.0547 6.6094685,10.694345 0 0 0 0.08025,-0.0564 6.6094685,10.694345 0 0 0 0.08025,-0.0581 6.6094685,10.694345 0 0 0 0.07982,-0.0599 6.6094685,10.694345 0 0 0 0.07939,-0.0616 6.6094685,10.694345 0 0 0 0.07852,-0.0629 6.6094685,10.694345 0 0 0 0.07808,-0.0651 6.6094685,10.694345 0 0 0 0.07765,-0.0668 6.6094685,10.694345 0 0 0 0.07722,-0.0681 6.6094685,10.694345 0 0 0 0.07635,-0.0698 6.6094685,10.694345 0 0 0 0.07592,-0.0716 6.6094685,10.694345 0 0 0 0.07548,-0.0733 6.6094685,10.694345 0 0 0 0.07461,-0.0746 6.6094685,10.694345 0 0 0 0.07418,-0.0763 6.6094685,10.694345 0 0 0 0.07331,-0.0781 6.6094685,10.694345 0 0 0 0.07288,-0.0794 6.6094685,10.694345 0 0 0 0.07201,-0.0811 6.6094685,10.694345 0 0 0 0.07158,-0.0829 6.6094685,10.694345 0 0 0 0.07071,-0.0841 6.6094685,10.694345 0 0 0 0.07028,-0.0855 6.6094685,10.694345 0 0 0 0.06941,-0.0872 6.6094685,10.694345 0 0 0 0.06854,-0.0889 6.6094685,10.694345 0 0 0 0.06767,-0.0898 6.6094685,10.694345 0 0 0 0.06724,-0.092 6.6094685,10.694345 0 0 0 0.06637,-0.0928 6.6094685,10.694345 0 0 0 0.06594,-0.0946 6.6094685,10.694345 0 0 0 0.06464,-0.0959 6.6094685,10.694345 0 0 0 0.0642,-0.0972 6.6094685,10.694345 0 0 0 0.06333,-0.0985 6.6094685,10.694345 0 0 0 0.06247,-0.10021 6.6094685,10.694345 0 0 0 0.0616,-0.10107 6.6094685,10.694345 0 0 0 0.06073,-0.10281 6.6094685,10.694345 0 0 0 0.05986,-0.10368 6.6094685,10.694345 0 0 0 0.059,-0.10541 6.6094685,10.694345 0 0 0 0.05856,-0.10629 6.6094685,10.694345 0 0 0 0.05726,-0.10758 6.6094685,10.694345 0 0 0 0.0564,-0.10888 6.6094685,10.694345 0 0 0 0.05553,-0.11019 6.6094685,10.694345 0 0 0 0.05466,-0.11148 6.6094685,10.694345 0 0 0 0.05379,-0.11236 6.6094685,10.694345 0 0 0 0.05249,-0.11365 6.6094685,10.694345 0 0 0 0.05205,-0.11496 6.6094685,10.694345 0 0 0 0.05076,-0.11582 6.6094685,10.694345 0 0 0 0.05032,-0.11669 6.6094685,10.694345 0 0 0 0.04858,-0.118 6.6094685,10.694345 0 0 0 0.04815,-0.11929 6.6094685,10.694345 0 0 0 0.04728,-0.11973 6.6094685,10.694345 0 0 0 0.04598,-0.12103 6.6094685,10.694345 0 0 0 0.04468,-0.12233 6.6094685,10.694345 0 0 0 0.04425,-0.12277 6.6094685,10.694345 0 0 0 0.04295,-0.12406 6.6094685,10.694345 0 0 0 0.04208,-0.12494 6.6094685,10.694345 0 0 0 0.04078,-0.1258 6.6094685,10.694345 0 0 0 0.03991,-0.12623 6.6094685,10.694345 0 0 0 0.03904,-0.12754 6.6094685,10.694345 0 0 0 0.03774,-0.1284 6.6094685,10.694345 0 0 0 0.03687,-0.12928 6.6094685,10.694345 0 0 0 0.03557,-0.1297 6.6094685,10.694345 0 0 0 0.0347,-0.13058 6.6094685,10.694345 0 0 0 0.03384,-0.13144 6.6094685,10.694345 0 0 0 0.03254,-0.13187 6.6094685,10.694345 0 0 0 0.03123,-0.13274 6.6094685,10.694345 0 0 0 0.03037,-0.13361 6.6094685,10.694345 0 0 0 0.02907,-0.13405 6.6094685,10.694345 0 0 0 0.0282,-0.13448 6.6094685,10.694345 0 0 0 0.0269,-0.13534 6.6094685,10.694345 0 0 0 0.02603,-0.13578 6.6094685,10.694345 0 0 0 0.02473,-0.13664 6.6094685,10.694345 0 0 0 0.02343,-0.13665 6.6094685,10.694345 0 0 0 0.02256,-0.13752 6.6094685,10.694345 0 0 0 0.0217,-0.13794 6.6094685,10.694345 0 0 0 0.01994,-0.13839 6.6094685,10.694345 0 0 0 0.01908,-0.13881 6.6094685,10.694345 0 0 0 0.01821,-0.13882 6.6094685,10.694345 0 0 0 0.01692,-0.13968 6.6094685,10.694345 0 0 0 0.01561,-0.13968 6.6094685,10.694345 0 0 0 0.01215,-0.118 c -1.074252,-3.03547 -2.72731,-6.38255 -5.005166,-7.16591 -1.367819,-0.40878 -2.521996,-0.56713 -3.833045,-0.46937 1.8e-5,0.002 4.44e-4,0.002 4.44e-4,0.004 -6.66e-4,-0.002 -0.0011,-0.002 -0.0018,-0.004 l -4.44e-4,0.001 c -1.199768,0.0917 -2.383731,0.41597 -3.533288,0.93614 z"
       inkscape:connector-curvature="0" />
    <path
       style="fill:none;stroke:#ffffff;stroke-width:1.30199;stroke-linecap:round;stroke-miterlimit:4;stroke-dasharray:none;stroke-opacity:1"
       d="m 54.6505,159.2836 4.071833,5.08161 4.702623,-3.82291 5.174605,3.74567 4.487069,-6.09263"
       id="path36"
       sodipodi:nodetypes="ccccc"
       inkscape:connector-curvature="0" />
    <path
       style="fill:#4e4e4e;fill-opacity:1;stroke:none;stroke-width:1.80566;stroke-linecap:round;stroke-miterlimit:4;stroke-dasharray:none;stroke-opacity:1"
       d="m 38.734088,133.67985 c 6.86059,-1.50366 13.192399,-0.34909 18.273329,7.09381 0,0 -3.355372,-9.41063 -7.850947,-10.76065 -3.743652,-1.12422 -10.422382,3.66684 -10.422382,3.66684 z"
       id="path861"
       sodipodi:nodetypes="ccsc"
       inkscape:connector-curvature="0" />
    <path
       style="fill:#4e4e4e;fill-opacity:1;stroke:none;stroke-width:1.80566;stroke-linecap:round;stroke-miterlimit:4;stroke-dasharray:none;stroke-opacity:1"
       d="m 86.364042,134.13364 c -6.860587,-1.50366 -13.192401,-0.34909 -18.273332,7.09381 0,0 3.355371,-9.41062 7.850952,-10.76065 3.743651,-1.12421 10.42238,3.66684 10.42238,3.66684 z"
       id="path863"
       sodipodi:nodetypes="ccsc"
       inkscape:connector-curvature="0" />
    <path
       style="fill:url(#linearGradient887);fill-opacity:1;stroke:none;stroke-width:1.80566;stroke-linecap:round;stroke-miterlimit:4;stroke-dasharray:none;stroke-opacity:1"
       d="M 47.772203,122.10535 31.586411,95.814009 28.616478,132.55799 Z"
       id="path879"
       sodipodi:nodetypes="cccc"
       inkscape:connector-curvature="0" />
    <path
       style="fill:url(#linearGradient891);fill-opacity:1;stroke:none;stroke-width:1.80566;stroke-linecap:round;stroke-miterlimit:4;stroke-dasharray:none;stroke-opacity:1"
       d="M 84.174719,123.7057 105.62497,109.70359 93.77565,140.43991 Z"
       id="path889"
       inkscape:connector-curvature="0" />
    <path
       style="fill:url(#linearGradient947);fill-opacity:1;stroke:none;stroke-width:1.80566;stroke-linecap:round;stroke-miterlimit:4;stroke-dasharray:none;stroke-opacity:1"
       d="m 136.23129,182.51441 c 13.6992,5.95447 16.60416,13.503 26.20577,12.42148 7.92511,-0.89268 17.07162,-7.02476 18.78867,-14.81295 2.26859,-10.28981 -17.91136,-18.29885 -14.29283,-28.19497 2.36869,-6.47801 12.71005,-10.77339 19.05482,-8.06797 12.62,5.38117 18.24979,25.21794 14.65914,38.45912 -4.36862,16.11003 -22.3395,31.25049 -39.03092,31.37117 -11.41069,0.0825 -26.98986,-21.05809 -26.98986,-21.05809 z"
       id="path939"
       sodipodi:nodetypes="csaaaaacc"
       inkscape:connector-curvature="0" />
    <path
       style="fill:none;fill-opacity:1;stroke:#bdbdbd;stroke-width:0.630428;stroke-linecap:round;stroke-miterlimit:4;stroke-dasharray:none;stroke-opacity:1"
       d="m 43.471588,156.19978 c -12.9351,0.57618 -25.31622,-2.90136 -37.3062724,-9.24054"
       id="path961"
       sodipodi:nodetypes="cc"
       inkscape:connector-curvature="0" />
    <path
       style="fill:none;fill-opacity:1;stroke:#bdbdbd;stroke-width:0.630428;stroke-linecap:round;stroke-miterlimit:4;stroke-dasharray:none;stroke-opacity:1"
       d="m 43.16611,159.46655 c -12.829535,7.24997 -25.114894,8.74241 -37.3062734,9.24054"
       id="path963"
       sodipodi:nodetypes="cc"
       inkscape:connector-curvature="0" />
    <path
       style="fill:none;fill-opacity:1;stroke:#bdbdbd;stroke-width:0.630428;stroke-linecap:round;stroke-miterlimit:4;stroke-dasharray:none;stroke-opacity:1"
       d="m 83.375478,156.19978 c 13.68997,1.96792 26.141602,-1.0471 37.306282,-9.24054"
       id="path965"
       sodipodi:nodetypes="cc"
       inkscape:connector-curvature="0" />
    <path
       style="fill:none;fill-opacity:1;stroke:#bdbdbd;stroke-width:0.630428;stroke-linecap:round;stroke-miterlimit:4;stroke-dasharray:none;stroke-opacity:1"
       d="m 83.680962,159.46655 c 11.202227,8.61089 24.315358,8.65166 37.306278,9.24054"
       id="path967"
       sodipodi:nodetypes="cc"
       inkscape:connector-curvature="0" />
    <path
       sodipodi:type="star"
       style="fill:#ffffff;fill-opacity:1;stroke:none;stroke-width:0.751001;stroke-linecap:round;stroke-miterlimit:4;stroke-dasharray:none;stroke-opacity:1"
       id="path991"
       sodipodi:sides="5"
       sodipodi:cx="282.40396"
       sodipodi:cy="247.04797"
       sodipodi:r1="198.80206"
       sodipodi:r2="99.401039"
       sodipodi:arg1="-1.878993"
       sodipodi:arg2="-1.2506745"
       inkscape:flatsided="false"
       inkscape:rounded="0"
       inkscape:randomized="0"
       d="M 222.09919,57.613038 313.6837,152.6968 443.93209,131.15611 381.80323,247.64065 442.53861,364.8578 312.55635,341.76545 219.84448,435.75031 201.63989,304.99391 83.605432,245.86261 202.33663,188.14306 Z"
       inkscape:transform-center-x="0.38901875"
       inkscape:transform-center-y="-0.16404359"
       transform="matrix(0.03485012,0.00248274,-0.00444861,0.0314688,52.640071,183.28457)" />
    <path
       sodipodi:type="star"
       style="fill:#ffffff;fill-opacity:1;stroke:none;stroke-width:0.751001;stroke-linecap:round;stroke-miterlimit:4;stroke-dasharray:none;stroke-opacity:1"
       id="path993"
       sodipodi:sides="5"
       sodipodi:cx="282.40396"
       sodipodi:cy="247.04797"
       sodipodi:r1="198.80206"
       sodipodi:r2="99.401039"
       sodipodi:arg1="-1.878993"
       sodipodi:arg2="-1.2506745"
       inkscape:flatsided="false"
       inkscape:rounded="0"
       inkscape:randomized="0"
       d="M 222.09919,57.613038 313.6837,152.6968 443.93209,131.15611 381.80323,247.64065 442.53861,364.8578 312.55635,341.76545 219.84448,435.75031 201.63989,304.99391 83.605432,245.86261 202.33663,188.14306 Z"
       inkscape:transform-center-x="0.21495718"
       inkscape:transform-center-y="-0.097011464"
       transform="matrix(0.01925684,0.00146815,-0.00245813,0.01860892,69.565917,183.51252)" />
  </g>
</svg>
