<?xml version="1.0" encoding="UTF-8" standalone="no"?>
<!-- Created with Inkscape (http://www.inkscape.org/) -->

<svg
   width="149.38065mm"
   height="107.11714mm"
   viewBox="0 0 149.38065 107.11714"
   version="1.1"
   id="svg5"
   inkscape:version="1.1.2 (0a00cf5339, 2022-02-04)"
   sodipodi:docname="mascot.svg"
   xmlns:inkscape="http://www.inkscape.org/namespaces/inkscape"
   xmlns:sodipodi="http://sodipodi.sourceforge.net/DTD/sodipodi-0.dtd"
   xmlns:xlink="http://www.w3.org/1999/xlink"
   xmlns="http://www.w3.org/2000/svg"
   xmlns:svg="http://www.w3.org/2000/svg">
  <sodipodi:namedview
     id="namedview7"
     pagecolor="#505050"
     bordercolor="#eeeeee"
     borderopacity="1"
     inkscape:pageshadow="0"
     inkscape:pageopacity="0"
     inkscape:pagecheckerboard="0"
     inkscape:document-units="mm"
     showgrid="false"
     inkscape:snap-global="false"
     fit-margin-top="0"
     fit-margin-left="0"
     fit-margin-right="0"
     fit-margin-bottom="0"
     inkscape:zoom="0.93539562"
     inkscape:cx="209.00247"
     inkscape:cy="217.02047"
     inkscape:window-width="1366"
     inkscape:window-height="712"
     inkscape:window-x="0"
     inkscape:window-y="27"
     inkscape:window-maximized="1"
     inkscape:current-layer="layer2" />
  <defs
     id="defs2">
    <linearGradient
       inkscape:collect="always"
       id="linearGradient39306">
      <stop
         style="stop-color:#1e4dc6;stop-opacity:1;"
         offset="0"
         id="stop39302" />
      <stop
         style="stop-color:#0f0051;stop-opacity:1"
         offset="1"
         id="stop39304" />
    </linearGradient>
    <linearGradient
       inkscape:collect="always"
       id="linearGradient33232">
      <stop
         style="stop-color:#2d2d2d;stop-opacity:1;"
         offset="0"
         id="stop33228" />
      <stop
         style="stop-color:#0d0d0d;stop-opacity:1"
         offset="1"
         id="stop33230" />
    </linearGradient>
    <linearGradient
       inkscape:collect="always"
       id="linearGradient25879">
      <stop
         style="stop-color:#636363;stop-opacity:1;"
         offset="0"
         id="stop25875" />
      <stop
         style="stop-color:#636363;stop-opacity:0;"
         offset="1"
         id="stop25877" />
    </linearGradient>
    <linearGradient
       inkscape:collect="always"
       id="linearGradient23186">
      <stop
         style="stop-color:#000000;stop-opacity:1;"
         offset="0"
         id="stop23182" />
      <stop
         style="stop-color:#111111;stop-opacity:1"
         offset="1"
         id="stop23184" />
    </linearGradient>
    <linearGradient
       inkscape:collect="always"
       id="linearGradient12506">
      <stop
         style="stop-color:#2d2d2d;stop-opacity:1;"
         offset="0"
         id="stop12502" />
      <stop
         style="stop-color:#252525;stop-opacity:1"
         offset="1"
         id="stop12504" />
    </linearGradient>
    <linearGradient
       inkscape:collect="always"
       xlink:href="#linearGradient12506"
       id="linearGradient12508"
       x1="152.08185"
       y1="174.05629"
       x2="109.22341"
       y2="147.907"
       gradientUnits="userSpaceOnUse" />
    <linearGradient
       inkscape:collect="always"
       xlink:href="#linearGradient12506"
       id="linearGradient14500"
       x1="73.991508"
       y1="156.43262"
       x2="70.398438"
       y2="194.82385"
       gradientUnits="userSpaceOnUse" />
    <linearGradient
       inkscape:collect="always"
       xlink:href="#linearGradient23186"
       id="linearGradient23188"
       x1="152.75339"
       y1="96.519257"
       x2="91.835991"
       y2="127.53004"
       gradientUnits="userSpaceOnUse" />
    <linearGradient
       inkscape:collect="always"
       xlink:href="#linearGradient23186"
       id="linearGradient24212"
       gradientUnits="userSpaceOnUse"
       x1="113.60735"
       y1="81.63958"
       x2="138.55199"
       y2="129.91756"
       gradientTransform="rotate(-18.417497,90.748957,142.00085)" />
    <linearGradient
       inkscape:collect="always"
       xlink:href="#linearGradient25879"
       id="linearGradient25881"
       x1="36.115173"
       y1="72.477791"
       x2="41.369396"
       y2="88.374115"
       gradientUnits="userSpaceOnUse"
       gradientTransform="matrix(0.71051535,0,0,0.71051535,40.688309,36.992329)" />
    <linearGradient
       inkscape:collect="always"
       xlink:href="#linearGradient25879"
       id="linearGradient26742"
       x1="75.583557"
       y1="70.520721"
       x2="75.248009"
       y2="91.492188"
       gradientUnits="userSpaceOnUse"
       gradientTransform="matrix(0.71051535,0,0,0.71051535,40.688309,36.992329)" />
    <linearGradient
       inkscape:collect="always"
       xlink:href="#linearGradient33232"
       id="linearGradient33150"
       x1="85.052376"
       y1="153.48131"
       x2="216.06725"
       y2="140.19225"
       gradientUnits="userSpaceOnUse" />
    <linearGradient
       inkscape:collect="always"
       xlink:href="#linearGradient33232"
       id="linearGradient33240"
       x1="46.204819"
       y1="89.40873"
       x2="19.303698"
       y2="135.66461"
       gradientUnits="userSpaceOnUse"
       gradientTransform="matrix(0.71051535,0,0,0.71051535,40.688309,36.992329)" />
    <linearGradient
       inkscape:collect="always"
       xlink:href="#linearGradient33232"
       id="linearGradient33305"
       x1="32.741257"
       y1="195.13623"
       x2="63.008751"
       y2="153.13124"
       gradientUnits="userSpaceOnUse" />
    <linearGradient
       inkscape:collect="always"
       xlink:href="#linearGradient33232"
       id="linearGradient33332"
       x1="103.98208"
       y1="193.55945"
       x2="99.532104"
       y2="154.25537"
       gradientUnits="userSpaceOnUse" />
    <linearGradient
       inkscape:collect="always"
       xlink:href="#linearGradient39306"
       id="linearGradient39308"
       x1="84.40773"
       y1="66.995079"
       x2="94.039558"
       y2="265.42068"
       gradientUnits="userSpaceOnUse"
       gradientTransform="scale(3.7795276)" />
  </defs>
  <g
     inkscape:groupmode="layer"
     id="layer3"
     inkscape:label="Layer 3"
     transform="translate(-36.988168,-79.041364)">
    <g
       id="g51621"
       transform="matrix(0.70974639,-0.03304733,0.03304733,0.70974639,30.299171,39.192632)">
      <path
         id="path35192"
         style="opacity:1;fill:url(#linearGradient39308);fill-opacity:1;stroke:none;stroke-width:2.72255;stroke-linecap:round;stroke-miterlimit:4;stroke-dasharray:none;stroke-dashoffset:29.8341;stroke-opacity:1;paint-order:stroke markers fill"
         d="M 356.53125,240.47852 A 348.29737,356.14954 0 0 0 8.234375,596.62695 348.29737,356.14954 0 0 0 61.521484,785.48438 447.02478,168.38507 0 0 1 324.52148,753.17578 447.02478,168.38507 0 0 1 640.53711,802.48047 348.29737,356.14954 0 0 0 704.82812,596.62695 348.29737,356.14954 0 0 0 356.53125,240.47852 Z"
         transform="scale(0.26458333)" />
      <path
         id="ellipse42001"
         style="opacity:1;fill:#067eeb;fill-opacity:1;stroke:none;stroke-width:2.10077;stroke-linecap:round;stroke-miterlimit:4;stroke-dasharray:none;stroke-dashoffset:29.8341;stroke-opacity:1;paint-order:stroke markers fill"
         d="M 353.71484,349.04883 A 268.7531,274.81198 0 0 0 84.960938,623.85938 268.7531,274.81198 0 0 0 126.64648,770.60352 447.02478,168.38507 0 0 1 324.52148,753.17578 447.02478,168.38507 0 0 1 573.44141,781.70508 268.7531,274.81198 0 0 0 622.4668,623.85938 268.7531,274.81198 0 0 0 353.71484,349.04883 Z"
         transform="scale(0.26458333)" />
      <path
         id="ellipse47548"
         style="opacity:1;fill:#00c0f8;fill-opacity:1;stroke:none;stroke-width:1.38685;stroke-linecap:round;stroke-miterlimit:4;stroke-dasharray:none;stroke-dashoffset:29.8341;stroke-opacity:1;paint-order:stroke markers fill"
         d="m 361.01953,484.45703 a 177.42042,181.42026 0 0 0 -177.42187,181.41992 177.42042,181.42026 0 0 0 25.27539,93.08008 447.02478,168.38507 0 0 1 115.64843,-5.78125 447.02478,168.38507 0 0 1 182.94727,14.75 177.42042,181.42026 0 0 0 30.9707,-102.04883 177.42042,181.42026 0 0 0 -177.41992,-181.41992 z"
         transform="scale(0.26458333)" />
      <path
         id="ellipse49658"
         style="opacity:1;fill:#94e4fc;fill-opacity:1;stroke:none;stroke-width:0.894758;stroke-linecap:round;stroke-miterlimit:4;stroke-dasharray:none;stroke-dashoffset:29.8341;stroke-opacity:1;paint-order:stroke markers fill"
         d="m 361.23242,588.89062 a 114.46681,117.0474 0 0 0 -114.4668,117.04688 114.46681,117.0474 0 0 0 10.81836,49.15625 447.02478,168.38507 0 0 1 66.9375,-1.91797 447.02478,168.38507 0 0 1 137.35547,8.14844 114.46681,117.0474 0 0 0 13.82227,-55.38672 114.46681,117.0474 0 0 0 -114.4668,-117.04688 z"
         transform="scale(0.26458333)" />
    </g>
  </g>
  <g
     inkscape:groupmode="layer"
     id="layer2"
     inkscape:label="Layer 2"
     style="display:inline"
     transform="translate(-36.988168,-79.041364)">
    <g
       id="g24551"
       transform="matrix(0.71051535,0,0,0.71051535,40.688309,36.992329)">
      <path
         style="fill:url(#linearGradient33332);fill-opacity:1;stroke-width:2.549;stroke-linecap:round;stroke-dashoffset:29.8341;paint-order:stroke markers fill"
         d="m 90.753902,162.31423 c 1.121314,4.35321 4.248001,9.07464 9.879128,14.2559 -1.628616,7.84199 -3.012078,15.81501 -7.64139,24.26388 0,0 -3.025069,1.7762 -2.848774,3.19118 0.237196,1.90378 3.48617,0.74805 3.527316,0.55108 1.25225,0.8953 2.579153,1.04844 4.067493,-0.40335 3.500235,0.94496 4.295435,-1.56588 5.529975,-3.22686 3.40716,-4.54263 6.57651,-16.0007 9.07835,-23.8553 0.2587,-1.78523 -0.58435,-5.82665 -0.58435,-5.82665 0.85076,-5.76908 1.15083,-11.39708 0.27996,-16.72513 z"
         id="path8079"
         sodipodi:nodetypes="cccsccccccc" />
      <path
         style="fill:url(#linearGradient33305);fill-opacity:1;stroke-width:2.549;stroke-linecap:round;stroke-dashoffset:29.8341;paint-order:stroke markers fill"
         d="m 53.627369,159.30051 c -1.919915,14.64086 0.328486,20.38339 -7.947142,48.59212 -3.207949,1.07232 -6.970235,3.27102 -8.338661,0.60555 -1.037212,0.84509 -2.118545,1.61353 -4.453445,0.20442 0,0 -2.880152,0.22246 -3.41141,-0.81939 -1.060693,-2.08012 2.675902,-6.47358 2.675902,-6.47358 9.646161,-32.19577 8.905363,-35.25176 13.358045,-52.87764 z"
         id="path15618"
         sodipodi:nodetypes="ccccaccc" />
      <path
         style="fill:url(#linearGradient33150);fill-opacity:1;stroke-width:2.549;stroke-linecap:round;stroke-dashoffset:29.8341;paint-order:stroke markers fill"
         d="m 46.387234,152.47377 c 14.614918,33.52912 43.184581,14.03284 64.297096,6.95682 8.93448,-5.48551 18.02166,-9.2274 27.54467,-7.99293 0.55203,1.84362 28.12051,19.47297 44.51055,9.26922 29.92174,-18.62801 27.33843,-57.12784 6.37077,-55.52438 -10.80564,0.82634 -11.50461,14.41019 -7.46973,21.99486 4.55161,8.556 -5.31656,18.76433 -15.19434,19.87996 -16.12993,1.82176 -29.04288,-16.48312 -45.18985,-18.1471 -10.43288,-1.07513 -20.50467,4.92465 -30.975653,5.52418 -4.329062,0.24787 -13.394227,-0.62802 -12.983386,-0.80725 z"
         id="path4173"
         sodipodi:nodetypes="cccssssaacc" />
      <path
         style="fill:url(#linearGradient12508);fill-opacity:1;stroke-width:2.549;stroke-linecap:round;stroke-dashoffset:29.8341;paint-order:stroke markers fill"
         d="m 113.86958,141.66468 c -4.66311,3.80163 -5.12215,12.06982 -3.18525,17.76591 2.26393,6.65783 15.60987,14.19157 15.60987,14.19157 0.12759,7.69599 -0.13778,15.687 -5.51017,27.51223 -0.27888,-0.25481 -2.37129,1.87198 -1.48069,3.22214 0.80987,1.22778 4.35443,0.71339 4.35443,0.71339 1.89169,0.82028 3.10597,0.2576 4.32668,-0.29196 2.71306,0.99131 3.39902,-0.51894 4.52009,-1.49225 2.52637,-7.3544 6.82441,-18.72219 7.26939,-26.83623 0.005,-2.54179 -1.74666,-4.69509 -2.05766,-7.15823 -0.7458,-5.90675 1.77777,-12.03589 0.51273,-17.85359 -0.73155,-3.36428 -1.65781,-7.41217 -4.55704,-9.26905 -5.56026,-3.56121 -14.68466,-4.67618 -19.80238,-0.50393 z"
         id="path10905"
         sodipodi:nodetypes="aaccsccccaaaa" />
      <path
         style="fill:url(#linearGradient14500);fill-opacity:1;stroke-width:2.549;stroke-linecap:round;stroke-dashoffset:29.8341;paint-order:stroke markers fill"
         d="m 79.04115,159.06742 c 1.680845,16.23946 5.507232,32.85545 -0.243639,47.79068 -3.400524,2.59866 -4.103743,0.52267 -5.882891,0.31135 -1.486751,0.7354 -2.996784,1.60785 -4.885925,0.29216 0,0 -3.561142,0.93677 -4.56442,-0.20916 -1.295139,-1.4793 0.511151,-5.87624 0.511151,-5.87624 0,0 3.412397,-27.48791 2.913505,-33.90938 -0.446015,-5.74083 -4.250637,-16.74327 -4.250637,-16.74327 z"
         id="path14492"
         sodipodi:nodetypes="ccccacccc" />
    </g>
    <g
       id="g24544"
       transform="matrix(0.71051535,0,0,0.71051535,40.688309,36.992329)">
      <path
         style="fill:url(#linearGradient24212);fill-opacity:1;stroke-width:2.549;stroke-linecap:round;stroke-dashoffset:29.8341;paint-order:stroke markers fill"
         d="m 140.13416,59.181037 c 9.89375,6.251521 17.62149,12.122264 19.44548,20.644788 0,0 -8.05732,18.758653 -21.84025,27.342075 -13.78294,8.58341 -30.94612,9.635 -43.668374,14.79139 -7.679944,3.11273 -26.266826,19.04078 -26.266826,19.04078 0,0 17.051783,-21.80247 27.576687,-30.6339 10.142023,-8.51015 25.338423,-10.767048 33.685493,-21.043706 6.74796,-8.307875 11.06779,-30.141427 11.06779,-30.141427 z"
         id="path24210"
         sodipodi:nodetypes="ccsscaac" />
      <path
         style="fill:url(#linearGradient23188);fill-opacity:1;stroke-width:2.549;stroke-linecap:round;stroke-dashoffset:29.8341;paint-order:stroke markers fill"
         d="m 164.9975,70.928623 c 8.64094,14.204651 11.66214,25.16585 10.70011,33.828117 0,0 -13.57121,15.25221 -29.36001,19.04141 -15.7888,3.78921 -32.40511,-0.63559 -46.10484,0.23724 -8.27,0.5269 -25.519002,12.57683 -25.519002,12.57683 0,0 16.480915,-19.89703 27.530742,-25.99718 10.82525,-5.97618 25.38282,-2.78775 35.92344,-9.25275 11.52814,-7.070688 26.82956,-30.433667 26.82956,-30.433667 z"
         id="path22268"
         sodipodi:nodetypes="ccsscaac" />
      <path
         style="fill:#000000;fill-opacity:0.996933;stroke-width:2.549;stroke-linecap:round;stroke-dashoffset:29.8341;paint-order:stroke markers fill"
         d="m 77.681015,126.64832 c 2.262928,1.05129 1.325928,2.59463 0.905266,4.05858 0.834138,1.49161 2.222079,2.49523 1.028137,5.77388 -8.857359,6.64651 -19.937167,10.42097 -23.214888,24.27801 -7.600077,-3.86542 -22.997707,-13.37567 -22.741401,-16.24328 0.165194,-1.84823 3.017976,-4.6777 3.017976,-4.6777 0,0 -2.190921,-4.68138 -1.377614,-6.87121 0.710562,-1.91319 4.830434,-3.76213 4.830434,-3.76213 z"
         id="path2754"
         sodipodi:nodetypes="ccccscscc" />
    </g>
    <path
       sodipodi:type="star"
       style="fill:#ffffff;fill-opacity:0.996933;stroke-width:9.63402;stroke-linecap:round;stroke-dashoffset:29.8341;paint-order:stroke markers fill"
       id="path4036"
       inkscape:flatsided="false"
       sodipodi:sides="5"
       sodipodi:cx="61.695469"
       sodipodi:cy="555.01184"
       sodipodi:r1="25.769079"
       sodipodi:r2="10.016441"
       sodipodi:arg1="-1.5701291"
       sodipodi:arg2="-0.94181058"
       inkscape:rounded="0"
       inkscape:randomized="0"
       d="m 61.712663,529.24277 5.875728,17.66953 18.620236,0.15281 -14.989024,11.04834 5.608637,17.75612 -15.139454,-10.84129 -15.153909,10.82107 5.632327,-17.74862 -14.974267,-11.06832 18.620423,-0.12797 z"
       transform="matrix(0.18630358,-0.02512786,0.02512786,0.18630358,51.969261,37.565966)"
       inkscape:transform-center-x="0.19910397"
       inkscape:transform-center-y="-0.26912721" />
    <path
       style="fill:#222222;fill-opacity:0.996933;stroke-width:1.8111;stroke-linecap:round;stroke-dashoffset:29.8341;paint-order:stroke markers fill"
       d="m 81.726901,96.057643 c 0,0 3.225638,-4.230353 5.828431,-6.567548 2.602791,-2.337196 7.106309,-5.875166 7.106309,-5.875166 l 2.499341,20.694931 z"
       id="path2225" />
    <path
       style="fill:url(#linearGradient26742);fill-opacity:1;stroke-width:1.8111;stroke-linecap:round;stroke-dashoffset:29.8341;paint-order:stroke markers fill"
       d="m 89.928137,97.032772 c 0.887508,-5.235571 2.713544,-7.462969 4.463447,-9.934388 l 1.713269,16.227346 z"
       id="path26635"
       sodipodi:nodetypes="cccc" />
    <path
       style="fill:url(#linearGradient33240);fill-opacity:1;stroke-width:1.8111;stroke-linecap:round;stroke-dashoffset:29.8341;paint-order:stroke markers fill"
       d="m 69.172794,131.28293 c -7.701631,-6.79824 -9.024302,-14.57408 -9.076972,-22.76318 -0.05665,-8.807978 1.526795,-18.805162 4.700564,-25.089375 4.770419,4.259765 9.031686,8.57724 11.726675,13.072246 5.635906,-1.368523 10.917212,-1.408363 14.502982,0.532668 3.821039,2.068384 8.208845,6.860241 6.895696,11.914101 1.712839,2.17022 4.006471,4.22837 3.987221,6.8785 -0.037,5.09749 -7.860774,13.11795 -7.860774,13.11795 -15.724384,4.44193 -20.231968,3.39394 -24.875392,2.33709 z"
       id="path870"
       sodipodi:nodetypes="csccscacc" />
    <path
       style="fill:url(#linearGradient25881);fill-opacity:1;stroke-width:1.8111;stroke-linecap:round;stroke-dashoffset:29.8341;paint-order:stroke markers fill"
       d="m 65.661405,87.637257 c 3.421669,3.945008 6.370686,7.733601 6.969482,10.885169 L 63.47552,107.0814 c 0.60556,-6.33475 0.05438,-12.434854 2.185885,-19.444143 z"
       id="path24718"
       sodipodi:nodetypes="cccc" />
    <path
       style="opacity:1;fill:#000000;fill-opacity:1;stroke:none;stroke-width:0.565852;stroke-linecap:round;stroke-miterlimit:4;stroke-dasharray:none;stroke-dashoffset:29.8341;stroke-opacity:1;paint-order:stroke markers fill"
       d="m 92.996815,116.15217 c -0.883759,-0.88274 -2.461327,-0.60668 -3.946358,-0.77103 1.626216,-0.6744 3.252904,-1.34833 5.975731,-0.9135 -0.721297,0.57831 -1.462018,0.73479 -2.029373,1.68453 z"
       id="path30521"
       sodipodi:nodetypes="cccc" />
    <path
       style="opacity:1;fill:none;fill-opacity:1;stroke:#000000;stroke-width:0.565852;stroke-linecap:round;stroke-miterlimit:4;stroke-dasharray:none;stroke-dashoffset:29.8341;stroke-opacity:1;paint-order:stroke markers fill"
       d="m 87.601008,117.91497 3.267333,2.46078 2.25423,-2.59624 2.084141,1.71983 2.382157,-3.40254"
       id="path30727" />
    <g
       id="g31485"
       transform="matrix(0.71051535,0,0,0.71051535,40.688309,36.992329)">
      <g
         id="g31467">
        <path
           id="path27533"
           style="fill:#ffffff;fill-opacity:0.996933;stroke:none;stroke-width:3.01;stroke-linecap:round;stroke-miterlimit:4;stroke-dasharray:none;stroke-dashoffset:29.8341;stroke-opacity:1;paint-order:stroke markers fill"
           d="m 223.52148,409.27734 c 6.82258,-2.37331 13.17048,-6.03154 18.94336,-11.14062 0.89021,-0.76988 -5.28286,-11.35527 -14.7539,-20.3457 0.0753,0.32362 0.15193,0.6455 0.22265,0.97265 0.0582,0.26936 0.1131,0.53794 0.16602,0.80664 0.0529,0.26871 0.10463,0.53674 0.15234,0.80469 0.0477,0.26795 0.0922,0.53565 0.13477,0.80273 0.0426,0.26709 0.0816,0.53466 0.11914,0.80079 0.0376,0.26612 0.0728,0.53181 0.10547,0.79687 0.0326,0.26506 0.064,0.52907 0.0918,0.79297 0.0278,0.2639 0.0531,0.52643 0.0762,0.78906 0.0231,0.26263 0.044,0.52585 0.0625,0.78711 0.0369,0.52253 0.065,1.04215 0.084,1.55859 0.019,0.51645 0.0294,1.02952 0.0312,1.53907 0.002,0.50954 -0.005,1.01574 -0.0195,1.51758 -0.0146,0.50183 -0.0381,0.99888 -0.0684,1.49218 -0.0302,0.49331 -0.0682,0.98283 -0.11328,1.4668 -0.0451,0.48397 -0.0971,0.96173 -0.15625,1.43555 -0.0592,0.47381 -0.12478,0.9434 -0.19727,1.40625 -0.0725,0.46284 -0.1513,0.92002 -0.23632,1.37109 -0.085,0.45107 -0.17665,0.89551 -0.27344,1.33398 -0.0968,0.43848 -0.19886,0.87182 -0.30664,1.29688 -0.10779,0.42506 -0.22184,0.84306 -0.33985,1.25391 -0.118,0.41084 -0.23973,0.81317 -0.36718,1.20898 -0.12746,0.39581 -0.26036,0.78411 -0.39649,1.16406 -0.13613,0.37996 -0.27589,0.75194 -0.41992,1.11524 -0.14403,0.36329 -0.2922,0.71863 -0.44336,1.06445 -0.15116,0.34582 -0.30537,0.68224 -0.46289,1.00977 -0.15752,0.32752 -0.31932,0.6447 -0.48242,0.95312 -0.1631,0.30842 -0.32819,0.60798 -0.4961,0.89649 -0.16791,0.2885 -0.33781,0.56621 -0.50976,0.83398 -0.048,0.0748 -0.0982,0.14173 -0.14649,0.21484 z"
           transform="scale(0.26458333)" />
        <path
           id="path31183"
           style="fill:#ffffff;fill-opacity:0.996933;stroke:none;stroke-width:3.01;stroke-linecap:round;stroke-miterlimit:4;stroke-dasharray:none;stroke-dashoffset:29.8341;stroke-opacity:1;paint-order:stroke markers fill"
           d="m 195.42969,366.13672 c -16.52679,5.57194 -34.52539,37.75195 -34.52539,37.75195 18.79147,7.26907 36.54335,10.45848 52.27929,7.9668 -0.21101,-0.12396 -0.42248,-0.24937 -0.63671,-0.38672 -0.26819,-0.17194 -0.54015,-0.35433 -0.8125,-0.54687 -0.27236,-0.19255 -0.54672,-0.39471 -0.82227,-0.60743 -0.27555,-0.21272 -0.55232,-0.43549 -0.83008,-0.66797 -0.27776,-0.23247 -0.55499,-0.47475 -0.83398,-0.72656 -0.279,-0.25181 -0.55864,-0.51443 -0.83789,-0.78515 -0.27926,-0.27073 -0.55936,-0.55064 -0.83789,-0.83985 -0.27853,-0.28921 -0.55521,-0.58726 -0.83204,-0.89453 -0.27682,-0.30727 -0.55397,-0.62235 -0.82812,-0.94727 -0.27415,-0.32491 -0.54592,-0.65982 -0.81641,-1.00195 -0.27048,-0.34213 -0.53883,-0.69186 -0.80468,-1.05078 -0.26585,-0.35892 -0.52884,-0.72627 -0.78907,-1.10156 -0.26023,-0.37529 -0.51785,-0.75915 -0.77148,-1.15039 -0.25364,-0.39124 -0.50394,-0.7905 -0.75,-1.19727 -0.24606,-0.40676 -0.4871,-0.82032 -0.72461,-1.24219 -0.23751,-0.42186 -0.47125,-0.85056 -0.69922,-1.2871 -0.22797,-0.43655 -0.45051,-0.88124 -0.66797,-1.33204 -0.21746,-0.45079 -0.43075,-0.90842 -0.63672,-1.37304 -0.20597,-0.46463 -0.40611,-0.93603 -0.59961,-1.41407 -0.1935,-0.47803 -0.38049,-0.9621 -0.56054,-1.45312 -0.09,-0.24551 -0.1772,-0.49351 -0.26368,-0.74219 -0.0865,-0.24867 -0.17109,-0.49821 -0.2539,-0.75 -0.0828,-0.25179 -0.16317,-0.50491 -0.24219,-0.75976 -0.079,-0.25485 -0.15731,-0.51168 -0.23242,-0.76954 -0.0751,-0.25785 -0.14768,-0.51848 -0.21875,-0.77929 -0.0711,-0.26082 -0.14012,-0.52144 -0.20703,-0.78516 -0.0669,-0.26371 -0.13268,-0.53031 -0.19531,-0.79687 -0.0626,-0.26657 -0.12146,-0.53338 -0.17969,-0.80274 -0.11647,-0.53872 -0.22678,-1.07632 -0.32813,-1.61133 -0.10135,-0.535 -0.19482,-1.0671 -0.28125,-1.59765 -0.0864,-0.53056 -0.16464,-1.0586 -0.23633,-1.58399 -0.0717,-0.52538 -0.13621,-1.04887 -0.19335,-1.56836 -0.0572,-0.51948 -0.10761,-1.03597 -0.15039,-1.54882 -0.0428,-0.51286 -0.0788,-1.02184 -0.10743,-1.52735 -0.0286,-0.5055 -0.0498,-1.00647 -0.0644,-1.5039 -0.0146,-0.49743 -0.0226,-0.99185 -0.0234,-1.48047 -8.6e-4,-0.48863 0.005,-0.97208 0.0176,-1.45117 0.0127,-0.4791 0.0325,-0.95304 0.0586,-1.42188 0.0261,-0.46884 0.0583,-0.93276 0.0977,-1.39062 0.0394,-0.45786 0.0863,-0.90932 0.13867,-1.35547 0.0524,-0.44616 0.11057,-0.8866 0.17578,-1.32032 0.008,-0.0562 0.0187,-0.11006 0.0273,-0.16601 z"
           transform="scale(0.26458333)" />
        <path
           id="path31181"
           style="fill:#000000;fill-opacity:0.996933;stroke:none;stroke-width:3.01;stroke-linecap:round;stroke-miterlimit:4;stroke-dasharray:none;stroke-dashoffset:29.8341;stroke-opacity:1;paint-order:stroke markers fill"
           d="m 195.42969,366.13672 c -0.009,0.0559 -0.0189,0.10984 -0.0273,0.16601 -0.0652,0.43372 -0.1234,0.87416 -0.17578,1.32032 -0.0524,0.44615 -0.0993,0.89761 -0.13867,1.35547 -0.0393,0.45786 -0.0715,0.92178 -0.0977,1.39062 -0.0261,0.46884 -0.0459,0.94278 -0.0586,1.42188 -0.0127,0.47909 -0.0184,0.96254 -0.0176,1.45117 8.7e-4,0.48862 0.009,0.98304 0.0234,1.48047 0.0146,0.49743 0.0358,0.9984 0.0644,1.5039 0.0286,0.50551 0.0646,1.01449 0.10743,1.52735 0.0428,0.51285 0.0932,1.02934 0.15039,1.54882 0.0571,0.51949 0.12167,1.04298 0.19335,1.56836 0.0717,0.52539 0.14991,1.05343 0.23633,1.58399 0.0864,0.53055 0.1799,1.06265 0.28125,1.59765 0.10135,0.53501 0.21166,1.07261 0.32813,1.61133 0.0582,0.26936 0.11705,0.53617 0.17969,0.80274 0.0626,0.26656 0.12839,0.53316 0.19531,0.79687 0.0669,0.26372 0.13596,0.52434 0.20703,0.78516 0.0711,0.26081 0.14364,0.52144 0.21875,0.77929 0.0751,0.25786 0.1534,0.51469 0.23242,0.76954 0.079,0.25485 0.15938,0.50797 0.24219,0.75976 0.0828,0.25179 0.16743,0.50133 0.2539,0.75 0.0865,0.24868 0.17365,0.49668 0.26368,0.74219 0.18005,0.49102 0.36704,0.97509 0.56054,1.45312 0.1935,0.47804 0.39364,0.94944 0.59961,1.41407 0.20597,0.46462 0.41926,0.92225 0.63672,1.37304 0.21746,0.4508 0.44,0.89549 0.66797,1.33204 0.22797,0.43654 0.46171,0.86524 0.69922,1.2871 0.23751,0.42187 0.47855,0.83543 0.72461,1.24219 0.24606,0.40677 0.49636,0.80603 0.75,1.19727 0.25363,0.39124 0.51125,0.7751 0.77148,1.15039 0.26023,0.37529 0.52322,0.74264 0.78907,1.10156 0.26585,0.35892 0.5342,0.70865 0.80468,1.05078 0.27049,0.34213 0.54226,0.67704 0.81641,1.00195 0.27415,0.32492 0.5513,0.64 0.82812,0.94727 0.27683,0.30727 0.55351,0.60532 0.83204,0.89453 0.27853,0.28921 0.55863,0.56912 0.83789,0.83985 0.27925,0.27072 0.55889,0.53334 0.83789,0.78515 0.27899,0.25181 0.55622,0.49409 0.83398,0.72656 0.27776,0.23248 0.55453,0.45525 0.83008,0.66797 0.27555,0.21272 0.54991,0.41488 0.82227,0.60743 0.27235,0.19254 0.54431,0.37493 0.8125,0.54687 0.21423,0.13735 0.4257,0.26276 0.63671,0.38672 3.55324,-0.56263 7.00147,-1.41751 10.33789,-2.57813 0.0483,-0.0731 0.0985,-0.14007 0.14649,-0.21484 0.17195,-0.26777 0.34185,-0.54548 0.50976,-0.83398 0.16791,-0.28851 0.333,-0.58807 0.4961,-0.89649 0.1631,-0.30842 0.3249,-0.6256 0.48242,-0.95312 0.15752,-0.32753 0.31173,-0.66395 0.46289,-1.00977 0.15116,-0.34582 0.29933,-0.70116 0.44336,-1.06445 0.14403,-0.3633 0.28379,-0.73528 0.41992,-1.11524 0.13613,-0.37995 0.26903,-0.76825 0.39649,-1.16406 0.12745,-0.39581 0.24918,-0.79814 0.36718,-1.20898 0.11801,-0.41085 0.23206,-0.82885 0.33985,-1.25391 0.10778,-0.42506 0.20984,-0.8584 0.30664,-1.29688 0.0968,-0.43847 0.18841,-0.88291 0.27344,-1.33398 0.085,-0.45107 0.16384,-0.90825 0.23632,-1.37109 0.0725,-0.46285 0.1381,-0.93244 0.19727,-1.40625 0.0592,-0.47382 0.11116,-0.95158 0.15625,-1.43555 0.0451,-0.48397 0.083,-0.97349 0.11328,-1.4668 0.0302,-0.4933 0.0538,-0.99035 0.0684,-1.49218 0.0146,-0.50184 0.0213,-1.00804 0.0195,-1.51758 -0.002,-0.50955 -0.0123,-1.02262 -0.0312,-1.53907 -0.019,-0.51644 -0.0471,-1.03606 -0.084,-1.55859 -0.0185,-0.26126 -0.0394,-0.52448 -0.0625,-0.78711 -0.0231,-0.26263 -0.0483,-0.52516 -0.0762,-0.78906 -0.0278,-0.2639 -0.0591,-0.52791 -0.0918,-0.79297 -0.0327,-0.26506 -0.0679,-0.53075 -0.10547,-0.79687 -0.0376,-0.26613 -0.0766,-0.5337 -0.11914,-0.80079 -0.0426,-0.26708 -0.0871,-0.53478 -0.13477,-0.80273 -0.0477,-0.26795 -0.0994,-0.53598 -0.15234,-0.80469 -0.0529,-0.2687 -0.10778,-0.53728 -0.16602,-0.80664 -0.0707,-0.32715 -0.14739,-0.64903 -0.22265,-0.97265 -8.70697,-8.26513 -20.20074,-15.18147 -31.5625,-11.88086 -0.2391,0.0694 -0.47898,0.14572 -0.71875,0.22656 z"
           transform="scale(0.26458333)" />
        <ellipse
           style="opacity:1;fill:#ffffff;fill-opacity:0.996933;stroke:none;stroke-width:0.796396;stroke-linecap:round;stroke-miterlimit:4;stroke-dasharray:none;stroke-dashoffset:29.8341;stroke-opacity:1;paint-order:stroke markers fill"
           id="path31379"
           cx="97.12114"
           cy="60.651592"
           rx="2.181555"
           ry="1.5339305"
           transform="rotate(28.386581)" />
      </g>
      <g
         id="g31473">
        <path
           id="path29498"
           style="fill:#ffffff;fill-opacity:0.996933;stroke:none;stroke-width:3.01;stroke-linecap:round;stroke-miterlimit:4;stroke-dasharray:none;stroke-dashoffset:29.8341;stroke-opacity:1;paint-order:stroke markers fill"
           d="m 291.57422,394.67578 c 3.95463,-2.05054 7.63521,-5.22846 10.93945,-9.96289 0,0 -3.25036,-6.43388 -7.99219,-12.86133 0.022,0.11405 0.0455,0.22791 0.0664,0.3418 0.038,0.2076 0.0731,0.41603 0.10742,0.62305 0.0343,0.20701 0.067,0.41278 0.0977,0.61914 0.0306,0.20635 0.0589,0.41353 0.0859,0.61914 0.027,0.20561 0.0527,0.41044 0.0762,0.61523 0.0235,0.20479 0.0444,0.40939 0.0644,0.61328 0.02,0.20389 0.04,0.40647 0.0566,0.60938 0.0166,0.20291 0.0317,0.40557 0.0449,0.60742 0.0133,0.20185 0.0232,0.4028 0.0332,0.60352 0.01,0.20071 0.0186,0.4001 0.0254,0.5996 0.007,0.19951 0.0119,0.39945 0.0156,0.59766 0.004,0.19821 0.007,0.39496 0.008,0.5918 6.5e-4,0.19684 -0.002,0.39445 -0.004,0.58984 -0.002,0.19539 -0.005,0.39013 -0.01,0.58399 -0.0105,0.38771 -0.0271,0.77121 -0.0488,1.15234 -0.0217,0.38113 -0.0496,0.7589 -0.082,1.13281 -0.0324,0.37392 -0.0707,0.74331 -0.11328,1.10938 -0.0425,0.36607 -0.0885,0.72834 -0.14062,1.08594 -0.0521,0.35759 -0.10882,0.71205 -0.16992,1.06054 -0.0611,0.3485 -0.12771,0.69249 -0.19727,1.03125 -0.0696,0.33877 -0.14324,0.6716 -0.2207,1 -0.0775,0.32841 -0.15738,0.65133 -0.24219,0.96875 -0.0848,0.31742 -0.17403,0.62975 -0.26563,0.93555 -0.0916,0.3058 -0.18537,0.60488 -0.2832,0.89844 -0.0978,0.29355 -0.19922,0.58064 -0.30273,0.86132 -0.10352,0.28069 -0.20973,0.55509 -0.31836,0.82227 -0.10864,0.26718 -0.22078,0.5282 -0.33399,0.78125 -0.1132,0.25305 -0.22848,0.49804 -0.3457,0.73633 -0.11722,0.23829 -0.2348,0.46851 -0.35547,0.6914 -0.0639,0.11803 -0.13057,0.22823 -0.19531,0.3418 z"
           transform="scale(0.26458333)" />
        <path
           id="path31188"
           style="fill:#ffffff;fill-opacity:0.996933;stroke:none;stroke-width:3.01;stroke-linecap:round;stroke-miterlimit:4;stroke-dasharray:none;stroke-dashoffset:29.8341;stroke-opacity:1;paint-order:stroke markers fill"
           d="m 271.21484,361.12305 c -9.98859,6.08663 -19.21093,23.41015 -19.21093,23.41015 -1.12241,4.05729 0.50924,7.31448 2.97851,10.32813 9.98552,2.00091 20.01438,4.17908 29.08399,2.40039 -0.0279,-0.0169 -0.056,-0.0315 -0.084,-0.0488 -0.18903,-0.11659 -0.38148,-0.24216 -0.57422,-0.375 -0.19273,-0.13284 -0.38629,-0.27312 -0.58203,-0.42187 -0.19573,-0.14876 -0.39376,-0.30636 -0.59179,-0.47071 -0.19804,-0.16435 -0.39609,-0.33601 -0.59571,-0.51562 -0.19962,-0.17962 -0.3991,-0.366 -0.59961,-0.56055 -0.20051,-0.19455 -0.40282,-0.39631 -0.60351,-0.60547 -0.2007,-0.20916 -0.40139,-0.42695 -0.60157,-0.65039 -0.20017,-0.22344 -0.3987,-0.45401 -0.59765,-0.6914 -0.19895,-0.2374 -0.39673,-0.4814 -0.59375,-0.73243 -0.19703,-0.25102 -0.3935,-0.5091 -0.58789,-0.77343 -0.1944,-0.26433 -0.38707,-0.5352 -0.57813,-0.8125 -0.19106,-0.27731 -0.38133,-0.55966 -0.56836,-0.84961 -0.18702,-0.28996 -0.37045,-0.5864 -0.55273,-0.88868 -0.18228,-0.30227 -0.36223,-0.61151 -0.53906,-0.92578 -0.17684,-0.31426 -0.3508,-0.63305 -0.52149,-0.95898 -0.17069,-0.32594 -0.33811,-0.65882 -0.50195,-0.99609 -0.16384,-0.33728 -0.32419,-0.67906 -0.48047,-1.02735 -0.15628,-0.34829 -0.30901,-0.70353 -0.45703,-1.0625 -0.074,-0.17949 -0.14694,-0.35892 -0.21875,-0.54101 -0.0718,-0.1821 -0.14336,-0.36612 -0.21289,-0.55079 -0.0695,-0.18466 -0.13792,-0.36944 -0.20508,-0.55664 -0.0672,-0.18719 -0.13257,-0.37672 -0.19727,-0.5664 -0.0647,-0.18968 -0.1273,-0.38014 -0.18945,-0.57227 -0.0621,-0.19213 -0.12408,-0.38554 -0.18359,-0.58008 -0.0595,-0.19453 -0.11704,-0.39099 -0.17383,-0.58789 -0.0568,-0.1969 -0.11204,-0.39452 -0.16602,-0.59375 -0.054,-0.19922 -0.10712,-0.40005 -0.1582,-0.60156 -0.0511,-0.20151 -0.10035,-0.40367 -0.14844,-0.60742 -0.0481,-0.20375 -0.0956,-0.40929 -0.14062,-0.61524 -0.045,-0.20595 -0.0871,-0.41298 -0.12891,-0.62109 -0.0837,-0.41622 -0.16349,-0.83079 -0.23633,-1.24414 -0.0728,-0.41335 -0.13906,-0.82446 -0.20117,-1.23437 -0.0621,-0.40992 -0.1184,-0.8187 -0.16992,-1.22461 -0.0515,-0.40592 -0.0976,-0.80959 -0.13867,-1.21094 -0.0411,-0.40136 -0.0786,-0.79908 -0.10938,-1.19531 -0.0308,-0.39624 -0.0556,-0.79109 -0.0762,-1.18164 -0.0206,-0.39056 -0.0363,-0.7778 -0.0469,-1.16211 -0.0105,-0.38432 -0.015,-0.76507 -0.0156,-1.14258 -6.2e-4,-0.37752 0.003,-0.75094 0.0117,-1.1211 0.009,-0.37015 0.0242,-0.73738 0.043,-1.09961 0.0188,-0.36222 0.042,-0.72047 0.0703,-1.07421 0.0283,-0.35375 0.06,-0.70218 0.0977,-1.04688 0.0376,-0.3447 0.0801,-0.68639 0.12695,-1.02148 0.0388,-0.27744 0.0819,-0.54786 0.12695,-0.81836 z"
           transform="scale(0.26458333)" />
        <path
           id="path31186"
           style="fill:#000000;fill-opacity:0.996933;stroke:none;stroke-width:3.01;stroke-linecap:round;stroke-miterlimit:4;stroke-dasharray:none;stroke-dashoffset:29.8341;stroke-opacity:1;paint-order:stroke markers fill"
           d="m 271.21484,361.12305 c -0.045,0.2705 -0.0881,0.54092 -0.12695,0.81836 -0.0469,0.33509 -0.0893,0.67678 -0.12695,1.02148 -0.0376,0.3447 -0.0694,0.69313 -0.0977,1.04688 -0.0283,0.35374 -0.0515,0.71199 -0.0703,1.07421 -0.0188,0.36223 -0.0338,0.72946 -0.043,1.09961 -0.009,0.37016 -0.0123,0.74358 -0.0117,1.1211 6.2e-4,0.37751 0.005,0.75826 0.0156,1.14258 0.0105,0.38431 0.0263,0.77155 0.0469,1.16211 0.0206,0.39055 0.0454,0.7854 0.0762,1.18164 0.0308,0.39623 0.0683,0.79395 0.10938,1.19531 0.0411,0.40135 0.0872,0.80502 0.13867,1.21094 0.0515,0.40591 0.10781,0.81469 0.16992,1.22461 0.0621,0.40991 0.12834,0.82102 0.20117,1.23437 0.0728,0.41335 0.15263,0.82792 0.23633,1.24414 0.0419,0.20811 0.0839,0.41514 0.12891,0.62109 0.045,0.20595 0.0925,0.41149 0.14062,0.61524 0.0481,0.20375 0.0974,0.40591 0.14844,0.60742 0.0511,0.20151 0.10423,0.40234 0.1582,0.60156 0.054,0.19923 0.10923,0.39685 0.16602,0.59375 0.0568,0.1969 0.11431,0.39336 0.17383,0.58789 0.0595,0.19454 0.12144,0.38795 0.18359,0.58008 0.0622,0.19213 0.12476,0.38259 0.18945,0.57227 0.0647,0.18968 0.13011,0.37921 0.19727,0.5664 0.0672,0.1872 0.13555,0.37198 0.20508,0.55664 0.0695,0.18467 0.14107,0.36869 0.21289,0.55079 0.0718,0.18209 0.14474,0.36152 0.21875,0.54101 0.14802,0.35897 0.30075,0.71421 0.45703,1.0625 0.15628,0.34829 0.31663,0.69007 0.48047,1.02735 0.16384,0.33727 0.33126,0.67015 0.50195,0.99609 0.17069,0.32593 0.34465,0.64472 0.52149,0.95898 0.17683,0.31427 0.35678,0.62351 0.53906,0.92578 0.18228,0.30228 0.36571,0.59872 0.55273,0.88868 0.18703,0.28995 0.3773,0.5723 0.56836,0.84961 0.19106,0.2773 0.38373,0.54817 0.57813,0.8125 0.19439,0.26433 0.39086,0.52241 0.58789,0.77343 0.19702,0.25103 0.3948,0.49503 0.59375,0.73243 0.19895,0.23739 0.39748,0.46796 0.59765,0.6914 0.20018,0.22344 0.40087,0.44123 0.60157,0.65039 0.20069,0.20916 0.403,0.41092 0.60351,0.60547 0.20051,0.19455 0.39999,0.38093 0.59961,0.56055 0.19962,0.17961 0.39767,0.35127 0.59571,0.51562 0.19803,0.16435 0.39606,0.32195 0.59179,0.47071 0.19574,0.14875 0.3893,0.28903 0.58203,0.42187 0.19274,0.13284 0.38519,0.25841 0.57422,0.375 0.028,0.0173 0.0561,0.0319 0.084,0.0488 2.58818,-0.50758 5.09926,-1.33707 7.50781,-2.58594 0.0647,-0.11357 0.13142,-0.22377 0.19531,-0.3418 0.12067,-0.22289 0.23825,-0.45311 0.35547,-0.6914 0.11722,-0.23829 0.2325,-0.48328 0.3457,-0.73633 0.11321,-0.25305 0.22535,-0.51407 0.33399,-0.78125 0.10863,-0.26718 0.21484,-0.54158 0.31836,-0.82227 0.10351,-0.28068 0.2049,-0.56777 0.30273,-0.86132 0.0978,-0.29356 0.19161,-0.59264 0.2832,-0.89844 0.0916,-0.3058 0.18082,-0.61813 0.26563,-0.93555 0.0848,-0.31742 0.16472,-0.64034 0.24219,-0.96875 0.0775,-0.3284 0.15114,-0.66123 0.2207,-1 0.0696,-0.33876 0.13616,-0.68275 0.19727,-1.03125 0.0611,-0.34849 0.11782,-0.70295 0.16992,-1.06054 0.0521,-0.3576 0.0981,-0.71987 0.14062,-1.08594 0.0425,-0.36607 0.0809,-0.73546 0.11328,-1.10938 0.0324,-0.37391 0.0603,-0.75168 0.082,-1.13281 0.0217,-0.38113 0.0383,-0.76463 0.0488,-1.15234 0.005,-0.19386 0.007,-0.3886 0.01,-0.58399 0.002,-0.19539 0.005,-0.393 0.004,-0.58984 -6.4e-4,-0.19684 -0.004,-0.39359 -0.008,-0.5918 -0.004,-0.19821 -0.009,-0.39815 -0.0156,-0.59766 -0.007,-0.1995 -0.0154,-0.39889 -0.0254,-0.5996 -0.01,-0.20072 -0.0199,-0.40167 -0.0332,-0.60352 -0.0133,-0.20185 -0.0283,-0.40451 -0.0449,-0.60742 -0.0166,-0.20291 -0.0366,-0.40549 -0.0566,-0.60938 -0.02,-0.20389 -0.041,-0.40849 -0.0644,-0.61328 -0.0235,-0.20479 -0.0492,-0.40962 -0.0762,-0.61523 -0.027,-0.20561 -0.0553,-0.41279 -0.0859,-0.61914 -0.0306,-0.20636 -0.0634,-0.41213 -0.0977,-0.61914 -0.0343,-0.20702 -0.0694,-0.41545 -0.10742,-0.62305 -0.0209,-0.11389 -0.0444,-0.22775 -0.0664,-0.3418 -4.70614,-6.37907 -10.87973,-12.75059 -16.80664,-12.81445 -2.145,-0.0231 -4.34106,0.77037 -6.5,2.08594 z"
           transform="scale(0.26458333)" />
        <ellipse
           style="opacity:1;fill:#ffffff;fill-opacity:0.996933;stroke:none;stroke-width:0.679031;stroke-linecap:round;stroke-miterlimit:4;stroke-dasharray:none;stroke-dashoffset:29.8341;stroke-opacity:1;paint-order:stroke markers fill"
           id="ellipse31461"
           cx="119.28349"
           cy="30.801483"
           rx="1.8594595"
           ry="1.3082985"
           transform="matrix(0.78795524,0.61573252,-0.61370916,0.78953218,0,0)" />
      </g>
    </g>
    <path
       style="opacity:1;fill:#4b4b4b;fill-opacity:0.996933;stroke:none;stroke-width:0.565852;stroke-linecap:round;stroke-miterlimit:4;stroke-dasharray:none;stroke-dashoffset:29.8341;stroke-opacity:1;paint-order:stroke markers fill"
       d="m 72.719081,108.53327 c 3.047518,-4.10074 6.53135,-5.5808 11.579501,-0.96758 0,0 -4.022217,-5.60049 -6.790682,-5.05456 -3.531256,0.20919 -4.794425,5.98455 -4.788819,6.02214 z"
       id="path31520"
       sodipodi:nodetypes="cccc" />
    <path
       style="opacity:1;fill:#4b4b4b;fill-opacity:0.996933;stroke:none;stroke-width:0.434641;stroke-linecap:round;stroke-miterlimit:4;stroke-dasharray:none;stroke-dashoffset:29.8341;stroke-opacity:1;paint-order:stroke markers fill"
       d="m 96.98707,106.75687 c -2.522889,-3.02382 -4.559793,-4.08448 -8.071637,-0.16458 0,0 2.154858,-4.29906 4.131881,-4.2569 1.97358,0.0421 3.939756,4.42148 3.939756,4.42148 z"
       id="path32717"
       sodipodi:nodetypes="ccacc" />
    <path
       style="opacity:1;fill:none;fill-opacity:1;stroke:#ffffff;stroke-width:0.565852;stroke-linecap:round;stroke-miterlimit:4;stroke-dasharray:none;stroke-dashoffset:29.8341;stroke-opacity:1;paint-order:stroke markers fill"
       d="m 84.853438,115.67622 c -8.481486,2.81644 -18.584993,2.3584 -27.824703,-1.30708"
       id="path34244"
       sodipodi:nodetypes="cc" />
    <path
       style="opacity:1;fill:none;fill-opacity:1;stroke:#ffffff;stroke-width:0.565852;stroke-linecap:round;stroke-miterlimit:4;stroke-dasharray:none;stroke-dashoffset:29.8341;stroke-opacity:1;paint-order:stroke markers fill"
       d="m 84.394633,117.73158 c -7.861552,4.85746 -17.492396,5.11427 -27.314051,3.09993"
       id="path34431"
       sodipodi:nodetypes="cc" />
    <path
       style="opacity:1;fill:none;fill-opacity:1;stroke:#ffffff;stroke-width:0.565852;stroke-linecap:round;stroke-miterlimit:4;stroke-dasharray:none;stroke-dashoffset:29.8341;stroke-opacity:1;paint-order:stroke markers fill"
       d="m 97.812307,113.95184 c 10.051163,0.50169 18.947603,-2.55796 22.529643,-8.68482"
       id="path34599"
       sodipodi:nodetypes="cc" />
    <path
       style="opacity:1;fill:none;fill-opacity:1;stroke:#ffffff;stroke-width:0.565852;stroke-linecap:round;stroke-miterlimit:4;stroke-dasharray:none;stroke-dashoffset:29.8341;stroke-opacity:1;paint-order:stroke markers fill"
       d="m 99.502216,115.76108 c 8.497714,0.35064 16.826374,0.16496 22.993454,-7.15243"
       id="path34729"
       sodipodi:nodetypes="cc" />
  </g>
</svg>
